<svg width="65" height="65" viewBox="0 0 65 65" fill="none" xmlns="http://www.w3.org/2000/svg">
    <circle cx="32.0938" cy="39.4062" r="22.0063" stroke="#B6B6B6" stroke-width="2.3" />
    <path d="M29.25 17.4688V13.4062M35.75 13.4062V17.4688" stroke="#B6B6B6" stroke-width="2.3" />
    <path
        d="M14.2476 26.1563L12.7892 24.6979C12.0082 23.9169 12.0082 22.6505 12.7892 21.8695L14.557 20.1017C15.338 19.3207 16.6044 19.3207 17.3854 20.1017L18.8438 21.5601"
        stroke="#B6B6B6" stroke-width="2.3" />
    <path
        d="M45.4999 21.5601L46.9583 20.1017C47.7394 19.3207 49.0057 19.3207 49.7868 20.1017L51.5545 21.8695C52.3356 22.6505 52.3356 23.9169 51.5545 24.6979L50.0961 26.1563"
        stroke="#B6B6B6" stroke-width="2.3" />
    <rect x="23.0875" y="6.8375" width="18.825" height="5.825" rx="2.9125" stroke="#B6B6B6"
        stroke-width="2.3" />
    <circle cx="32.5" cy="39.8125" r="2.9125" stroke="#B6B6B6" stroke-width="2.3" />
    <path
        d="M26.8118 43.4681C26.3627 43.9172 26.3627 44.6453 26.8118 45.0944C27.2609 45.5435 27.9891 45.5435 28.4382 45.0944L26.8118 43.4681ZM44.6987 30.0525C45.1419 29.5976 45.1324 28.8696 44.6775 28.4263C44.2226 27.9831 43.4946 27.9926 43.0513 28.4475L44.6987 30.0525ZM28.4382 45.0944C28.4343 45.0983 28.4868 45.0496 28.6397 44.9126C28.7757 44.7907 28.9652 44.622 29.2023 44.411C29.6757 43.99 30.3351 43.4043 31.1224 42.7019L29.5913 40.9856C28.0542 42.3568 26.9413 43.3386 26.8118 43.4681L28.4382 45.0944ZM35.6453 38.6322C38.8031 35.7615 42.3316 32.4819 44.6987 30.0525L43.0513 28.4475C40.7377 30.822 37.2551 34.0605 34.0981 36.9303L35.6453 38.6322Z"
        fill="#B6B6B6" />
    <path d="M32.5 55.6562C45.0938 54.8438 50.7813 43.875 47.125 34.5312" stroke="#B6B6B6"
        stroke-width="2.3" stroke-linecap="round" />
    <circle cx="32.7031" cy="23.7656" r="1.01562" fill="#B6B6B6" />
    <circle cx="23.7656" cy="26.2031" r="1.01562" fill="#B6B6B6" />
    <circle cx="18.0781" cy="32.7031" r="1.01562" fill="#B6B6B6" />
    <circle cx="16.4531" cy="40.0156" r="1.01562" fill="#B6B6B6" />
    <circle cx="18.8906" cy="48.1406" r="1.01562" fill="#B6B6B6" />
    <circle cx="24.5781" cy="53.0156" r="1.01562" fill="#B6B6B6" />
</svg>
    