<svg width="65" height="65" viewBox="0 0 65 65" fill="none" xmlns="http://www.w3.org/2000/svg">
    <path
        d="M31.5947 8.32617C32.1218 8.03051 32.7582 8.01177 33.2988 8.27051L33.4053 8.32617L35.8477 9.69629C36.377 9.99322 36.9642 10.1705 37.5674 10.2158L37.8271 10.2266L40.627 10.2617C41.2313 10.2692 41.791 10.571 42.1299 11.0654L42.1943 11.166L43.625 13.5742C43.9349 14.096 44.3548 14.543 44.8545 14.8838L45.0732 15.0234L47.4814 16.4531C48.0009 16.7617 48.3345 17.3029 48.3809 17.9004L48.3867 18.0205L48.4209 20.8213C48.4284 21.4283 48.5695 22.0252 48.832 22.5703L48.9512 22.7998L50.3213 25.2422C50.617 25.7693 50.6358 26.4056 50.377 26.9463L50.3213 27.0527L48.9512 29.4951C48.6543 30.0244 48.4779 30.6117 48.4326 31.2148L48.4209 31.4746L48.3867 34.2744C48.3792 34.8786 48.0773 35.4385 47.583 35.7773L47.4814 35.8418L45.0732 37.2725C44.5516 37.5823 44.1054 38.0025 43.7646 38.502L43.625 38.7207L42.1943 41.1289C41.8857 41.6485 41.3447 41.9821 40.7471 42.0283L40.627 42.0342L37.8271 42.0684C37.2202 42.0759 36.6232 42.2171 36.0781 42.4795L35.8477 42.5986L33.4053 43.9688C32.8782 44.2644 32.2428 44.2831 31.7021 44.0244L31.5947 43.9688L29.1523 42.5986C28.623 42.3018 28.0358 42.1253 27.4326 42.0801L27.1738 42.0684L24.373 42.0342C23.7689 42.0266 23.2089 41.7248 22.8701 41.2305L22.8057 41.1289L21.376 38.7207C21.066 38.1989 20.6452 37.7529 20.1455 37.4121L19.9268 37.2725L17.5186 35.8418C16.9992 35.5331 16.6653 34.992 16.6191 34.3945L16.6143 34.2744L16.5791 31.4746C16.5716 30.8677 16.4313 30.2706 16.1689 29.7256L16.0488 29.4951L14.6787 27.0527C14.3832 26.5258 14.3645 25.8901 14.623 25.3496L14.6787 25.2422L16.0488 22.7998C16.3458 22.2704 16.5231 21.6833 16.5684 21.0801L16.5791 20.8213L16.6143 18.0205C16.6219 17.4162 16.9235 16.8563 17.418 16.5176L17.5186 16.4531L19.9268 15.0234C20.4487 14.7134 20.8955 14.2928 21.2363 13.793L21.376 13.5742L22.8057 11.166C23.1143 10.6467 23.6556 10.3129 24.2529 10.2666L24.373 10.2617L27.1738 10.2266C27.7808 10.219 28.3778 10.0788 28.9229 9.81641L29.1523 9.69629L31.5947 8.32617Z"
        stroke="#FF3537" stroke-width="2.3" />
    <path
        d="M35.3486 21.002C35.5932 21.3588 35.9386 21.6326 36.3389 21.7891L36.5137 21.8486L41.3457 23.2734L38.2744 27.2666C38.0105 27.6096 37.8571 28.0229 37.832 28.4521L37.8291 28.6367L37.9668 33.6719L33.2207 31.9844L33.0439 31.9297C32.6874 31.8365 32.3126 31.8364 31.9561 31.9297L31.7803 31.9844L27.0332 33.6719L27.1719 28.6367C27.1838 28.2041 27.065 27.779 26.833 27.417L26.7266 27.2666L23.6543 23.2734L28.4863 21.8486C28.9012 21.7263 29.2685 21.4826 29.541 21.1504L29.6523 21.002L32.5 16.8457L35.3486 21.002Z"
        stroke="#FF3537" stroke-width="2.3" />
    <path d="M32.5001 44.2843L27.2103 60.5314L24.1876 52.5968L16.2529 55.9973L22.2984 40.5059"
        stroke="#FF3537" stroke-width="2.3" stroke-miterlimit="11.4737" stroke-linejoin="round" />
    <path d="M32.5004 44.2843L37.7902 60.5314L40.8129 52.5968L48.7476 55.9973L42.7021 40.5059"
        stroke="#FF3537" stroke-width="2.3" stroke-miterlimit="11.4737" stroke-linejoin="round" />
</svg>
