<svg width="65" height="65" viewBox="0 0 65 65" fill="none" xmlns="http://www.w3.org/2000/svg">
    <path
        d="M4.46878 31.6875C4.06259 34.5312 5.28112 37.375 8.88564 37.375M8.88564 37.375C8.87296 33.5796 9.98094 29.3676 13 25.5938C16.8335 20.8018 26.935 15.7836 41.7809 18.9901C42.0869 19.0561 42.4081 19.0542 42.7118 18.9783L48.8993 17.4314C50.3322 17.0732 51.6458 18.3384 51.3415 19.7837L50.6094 23.261C50.464 23.9517 50.6983 24.6647 51.2018 25.1593C54.0393 27.9467 55.2098 30.2339 55.99 34.5271C56.0391 34.797 56.141 35.0554 56.2932 35.2837V35.2837C56.6566 35.8288 57.2684 36.1562 57.9236 36.1562H58.5312C59.6358 36.1562 60.5312 37.0517 60.5312 38.1562V43.9112C60.5312 44.6406 60.1342 45.3121 59.4951 45.6636L52.5327 49.4929C52.4485 49.5393 52.3595 49.5797 52.2699 49.6145C49.2005 50.8067 48.5379 52.5022 47.9717 55.4739C47.9487 55.5946 47.9374 55.7181 47.9374 55.8409V58.9375C47.9374 60.0421 47.042 60.9375 45.9374 60.9375H41.8124C40.7078 60.9375 39.8124 60.0421 39.8124 58.9375V58.2677C39.8124 56.9511 38.5615 55.9999 37.2747 56.2782C32.9816 57.207 29.8022 57.1767 25.6942 56.2816C24.4074 56.0012 23.1561 56.952 23.1561 58.2689V58.9375C23.1561 60.0421 22.2607 60.9375 21.1561 60.9375H17.0311C15.9266 60.9375 15.0311 60.0421 15.0311 58.9375V54.0312C14.7006 50.9186 14.0145 49.5382 12.1874 47.5312C10.4047 45.5732 8.90026 41.751 8.88564 37.375ZM24.7811 23.1562C28.0311 21.125 35.7499 21.125 39.8124 22.75M12.9999 36.9688C12.9999 41.4375 15.0311 45.5 18.6874 47.9375"
        stroke="#FF3537" stroke-width="2.3" stroke-linecap="round" />
    <circle cx="32.5" cy="11.375" r="6.1625" stroke="#FF3537" stroke-width="2.3" />
    <circle cx="49.1562" cy="32.9062" r="2.03125" fill="#FF3537" />
</svg>
