<svg width="65" height="65" viewBox="0 0 65 65" fill="none" xmlns="http://www.w3.org/2000/svg">
    <rect x="19.025" y="4.4" width="16.3875" height="22.075" rx="8.19375" stroke="#FF3537"
        stroke-width="2.3" />
    <path
        d="M41.8438 15.775C42.4789 15.775 42.9937 15.2601 42.9937 14.625C42.9937 13.9899 42.4789 13.475 41.8438 13.475V15.775ZM19.0938 15.775H41.8438V13.475H19.0938V15.775Z"
        fill="#FF3537" />
    <path
        d="M21.125 49.9688V31.2812H25.5938M42.25 56.0625H56.4688V31.2812H35.75M35.75 31.2812V49.9688M35.75 31.2812H30.875M25.5938 31.2812V37.7812H30.875V31.2812M25.5938 31.2812H30.875"
        stroke="#FF3537" stroke-width="2.3" stroke-miterlimit="11.4737" stroke-linejoin="round" />
    <path d="M45.5 47.5312H52.4062M52.4062 52H48.3438" stroke="#FF3537" stroke-width="2.3"
        stroke-miterlimit="11.4737" stroke-linecap="round" stroke-linejoin="round" />
    <path
        d="M17.875 26.8125L13.8125 28.8438C10.1562 30.4688 8.53125 33.0682 8.53125 37.1307V52C8.53125 56.4688 12.1875 60.125 15.8438 60.125H36.5625C43.875 60.125 43.875 49.5625 36.5625 49.5625H18.6875"
        stroke="#FF3537" stroke-width="2.3" stroke-miterlimit="11.4737" stroke-linecap="round"
        stroke-linejoin="round" />
</svg>
