<svg width="65" height="65" viewBox="0 0 65 65" fill="none" xmlns="http://www.w3.org/2000/svg">
    <path
        d="M4.94375 28.4375C4.94375 29.0726 5.45862 29.5875 6.09375 29.5875C6.72888 29.5875 7.24375 29.0726 7.24375 28.4375H4.94375ZM40.2875 46.7188C40.2875 47.3539 40.8024 47.8688 41.4375 47.8688C42.0726 47.8688 42.5875 47.3539 42.5875 46.7188H40.2875ZM1.625 30.9438C0.989873 30.9438 0.475 31.4586 0.475 32.0938C0.475 32.7289 0.989873 33.2437 1.625 33.2437V30.9438ZM12.1875 33.2437C12.8226 33.2437 13.3375 32.7289 13.3375 32.0938C13.3375 31.4586 12.8226 30.9438 12.1875 30.9438V33.2437ZM4.46875 35.0063C3.83362 35.0063 3.31875 35.5211 3.31875 36.1562C3.31875 36.7914 3.83362 37.3062 4.46875 37.3062V35.0063ZM13 37.3062C13.6351 37.3062 14.15 36.7914 14.15 36.1562C14.15 35.5211 13.6351 35.0063 13 35.0063V37.3062ZM7.71875 39.0688C7.08362 39.0688 6.56875 39.5836 6.56875 40.2188C6.56875 40.8539 7.08362 41.3687 7.71875 41.3687V39.0688ZM14.2188 41.3687C14.8539 41.3687 15.3687 40.8539 15.3687 40.2188C15.3687 39.5836 14.8539 39.0688 14.2188 39.0688V41.3687ZM45.0938 32.975C44.4586 32.975 43.9437 33.4899 43.9437 34.125C43.9437 34.7601 44.4586 35.275 45.0938 35.275V32.975ZM7.24375 43.875C7.24375 43.2399 6.72888 42.725 6.09375 42.725C5.45862 42.725 4.94375 43.2399 4.94375 43.875H7.24375ZM57.2812 41.1C56.6461 41.1 56.1312 41.6149 56.1312 42.25C56.1312 42.8851 56.6461 43.4 57.2812 43.4V41.1ZM52.8125 23.9688L53.8493 23.4711L53.8452 23.4627L53.8411 23.4545L52.8125 23.9688ZM7.24375 28.4375V18.2812H4.94375V28.4375H7.24375ZM7.24375 18.2812C7.24375 17.2914 7.94763 16.5875 8.9375 16.5875V14.2875C6.67737 14.2875 4.94375 16.0211 4.94375 18.2812H7.24375ZM8.9375 16.5875H37.7812V14.2875H8.9375V16.5875ZM37.7812 16.5875C38.8227 16.5875 39.3926 16.8471 39.7103 17.1647C40.0279 17.4824 40.2875 18.0523 40.2875 19.0938H42.5875C42.5875 17.6977 42.2377 16.4395 41.3366 15.5384C40.4355 14.6373 39.1773 14.2875 37.7812 14.2875V16.5875ZM1.625 33.2437H12.1875V30.9438H1.625V33.2437ZM4.46875 37.3062H13V35.0063H4.46875V37.3062ZM7.71875 41.3687H14.2188V39.0688H7.71875V41.3687ZM40.2875 19.0938V21.5312H42.5875V19.0938H40.2875ZM40.2875 21.5312V46.7188H42.5875V21.5312H40.2875ZM57.6875 32.975H45.0938V35.275H57.6875V32.975ZM57.6875 35.275C59.7245 35.275 61.0062 36.5968 61.0062 37.7812H63.3063C63.3063 34.9032 60.5255 32.975 57.6875 32.975V35.275ZM61.0062 47.9375C61.0062 48.5727 60.8482 48.8379 60.7337 48.9525C60.6192 49.067 60.354 49.225 59.7188 49.225V51.525C60.7085 51.525 61.6621 51.2768 62.36 50.5788C63.058 49.8808 63.3063 48.9273 63.3063 47.9375H61.0062ZM59.7188 49.225H55.25V51.525H59.7188V49.225ZM45.5 49.225H24.7812V51.525H45.5V49.225ZM14.625 49.225H9.34375V51.525H14.625V49.225ZM9.34375 49.225C8.30059 49.225 7.86243 48.9656 7.65562 48.7381C7.42857 48.4884 7.24375 48.0207 7.24375 47.125H4.94375C4.94375 48.2605 5.16518 49.4179 5.95376 50.2853C6.76257 51.175 7.94941 51.525 9.34375 51.525V49.225ZM7.24375 47.125V43.875H4.94375V47.125H7.24375ZM61.0062 37.7812V42.25H63.3063V37.7812H61.0062ZM61.0062 42.25V47.9375H63.3063V42.25H61.0062ZM62.1562 41.1H57.2812V43.4H62.1562V41.1ZM41.4375 22.6813H48.75V20.3812H41.4375V22.6813ZM48.75 22.6813C50.0032 22.6813 51.1932 23.3016 51.7839 24.483L53.8411 23.4545C52.8068 21.3859 50.7468 20.3812 48.75 20.3812V22.6813ZM51.7757 24.4664L56.6507 34.6226L58.7243 33.6274L53.8493 23.4711L51.7757 24.4664Z"
        fill="#B6B6B6" />
    <circle cx="19.9062" cy="49.9688" r="4.94375" stroke="#B6B6B6" stroke-width="2.3" />
    <circle cx="50.7812" cy="49.9688" r="4.94375" stroke="#B6B6B6" stroke-width="2.3" />
</svg>
    