<svg width="24" height="17" viewBox="0 0 24 17" fill="none" xmlns="http://www.w3.org/2000/svg">
    <path fill-rule="evenodd" clip-rule="evenodd"
        d="M9.5221 0.0322929C9.20818 0.0517137 8.56048 0.102486 8.08277 0.145073C7.60506 0.187686 6.92385 0.252054 6.56898 0.288099C6.21411 0.32417 5.8485 0.369502 5.7565 0.388846C5.66451 0.40819 5.51665 0.459833 5.42791 0.503626C5.32453 0.554628 5.21062 0.64106 5.11086 0.744193C5.02524 0.832703 4.91993 0.973574 4.87684 1.05726C4.83374 1.14092 4.76507 1.30411 4.72425 1.41989C4.6834 1.53567 4.57141 1.88779 4.47532 2.20237C4.37926 2.51695 4.23922 2.99944 4.1641 3.27459C4.08901 3.54974 3.96676 4.02885 3.89249 4.33927C3.81819 4.6497 3.7214 5.07685 3.67741 5.28851C3.63341 5.50016 3.59363 5.67769 3.58899 5.68303C3.58437 5.68834 3.52364 5.6398 3.45408 5.57515C3.38453 5.5105 3.26935 5.42812 3.19818 5.39213C3.12698 5.35611 2.98523 5.30865 2.88319 5.28664C2.73007 5.25362 2.54599 5.24826 1.8291 5.25598C1.00324 5.26488 0.953213 5.26814 0.811662 5.32263C0.729793 5.35413 0.620453 5.40891 0.568687 5.44431C0.51692 5.47974 0.42922 5.55699 0.37383 5.61599C0.318441 5.67503 0.235679 5.80014 0.189918 5.89409C0.144157 5.98804 0.0827122 6.16573 0.0533547 6.28897L0 6.51305L0.0519651 6.74335C0.0805284 6.87001 0.138846 7.04138 0.18153 7.1242C0.224214 7.20701 0.322635 7.33736 0.400235 7.41387C0.477835 7.4904 0.596754 7.58204 0.664502 7.61752C0.732225 7.65302 0.837719 7.69643 0.898915 7.71403C0.960112 7.73163 1.20185 7.753 1.43614 7.76154L1.8621 7.77704L1.704 8.04629C1.61707 8.19437 1.51058 8.40795 1.4674 8.5209C1.4242 8.63386 1.3595 8.83595 1.32364 8.96999L1.2584 9.21372L1.25158 12.8506L1.24478 16.4874L1.29826 16.616C1.33168 16.6963 1.40241 16.7923 1.48693 16.8722L1.62216 17H3.52548C5.25343 17 5.43446 16.9961 5.49015 16.9576C5.5239 16.9343 5.58785 16.8801 5.63222 16.8371C5.67662 16.7941 5.73662 16.6948 5.76558 16.6165C5.80747 16.5031 5.82083 16.3968 5.83095 16.0956L5.84366 15.7171L12.0133 15.7236L18.1829 15.7301L18.1971 16.1406C18.2074 16.4411 18.2221 16.576 18.252 16.6441C18.2744 16.6953 18.3225 16.7738 18.3589 16.8184C18.3952 16.8631 18.4678 16.9222 18.5201 16.9498C18.6121 16.9983 18.6783 17 20.4985 17H22.3818L22.4841 16.9234C22.5404 16.8813 22.6195 16.7868 22.6601 16.7134C22.7017 16.638 22.7457 16.5068 22.7612 16.4116C22.7806 16.2924 22.786 15.2377 22.7795 12.8054C22.7706 9.43643 22.7694 9.36277 22.7188 9.12393C22.6904 8.98988 22.6427 8.80516 22.6128 8.71345C22.583 8.62173 22.522 8.4649 22.4774 8.36492C22.4328 8.26495 22.3389 8.09062 22.2687 7.97753C22.1985 7.86445 22.1411 7.76729 22.1411 7.76165C22.1411 7.756 22.3282 7.75138 22.5568 7.75138C22.9181 7.75138 22.9956 7.74387 23.1491 7.69394C23.2463 7.66234 23.3919 7.59091 23.4725 7.53519C23.5532 7.47949 23.6558 7.38693 23.7004 7.32951C23.7451 7.2721 23.8195 7.14149 23.8658 7.03928C23.9122 6.9371 23.9642 6.7806 23.9815 6.69155C24.0088 6.55099 24.0071 6.50024 23.9687 6.30673C23.9444 6.18412 23.8889 6.00885 23.8455 5.91721C23.7994 5.81992 23.7085 5.69047 23.6269 5.60609C23.546 5.52235 23.4208 5.42797 23.3291 5.38161C23.2422 5.33761 23.1108 5.29 23.0373 5.27581C22.9638 5.26162 22.5339 5.25021 22.0819 5.25041C21.4446 5.25069 21.2252 5.25929 21.1046 5.28871C21.019 5.30957 20.8915 5.35675 20.8212 5.39354C20.751 5.43035 20.635 5.51766 20.5635 5.58757L20.4335 5.71466L20.3792 5.46309C20.3494 5.32473 20.2972 5.0961 20.2634 4.95499C20.2296 4.81389 20.0791 4.25397 19.929 3.71073C19.7789 3.16748 19.5666 2.40553 19.4573 2.0175C19.3479 1.62947 19.2185 1.2254 19.1698 1.11958C19.107 0.983271 19.0333 0.877727 18.9172 0.757585C18.8271 0.664329 18.6976 0.558836 18.6295 0.52315C18.5613 0.487464 18.4441 0.439335 18.3691 0.416194C18.294 0.393054 18.1265 0.362883 17.9968 0.349158C17.8672 0.335432 16.8844 0.252105 15.813 0.164006L13.8649 0.00379046L11.9789 0.000378462C10.6344 -0.00205876 9.92899 0.00712541 9.5221 0.0322929ZM13.5447 1.27412C13.83 1.28849 14.3259 1.31761 14.6466 1.33885C14.9674 1.36009 15.6039 1.40586 16.0612 1.4406C16.5184 1.47533 17.1296 1.52079 17.4193 1.54163C17.7651 1.56649 17.9698 1.59219 18.0149 1.61649C18.0527 1.63681 18.1074 1.68052 18.1364 1.71362C18.1654 1.74671 18.2066 1.8315 18.2279 1.90205C18.2492 1.9726 18.4901 2.87309 18.7633 3.90314C19.0364 4.93319 19.2673 5.81926 19.2764 5.87216C19.2901 5.95271 19.2858 5.96836 19.25 5.96836C19.2264 5.96836 19.0437 5.93999 18.8439 5.90533C18.6442 5.87067 18.2462 5.80776 17.9596 5.76554C17.673 5.72331 17.1984 5.65961 16.9049 5.62397C16.6115 5.58836 16.1257 5.53605 15.8254 5.50776C15.5251 5.47946 15.0114 5.43877 14.6839 5.41735C14.3563 5.39595 13.7812 5.36696 13.4058 5.35295C13.0305 5.33895 12.3995 5.32745 12.0037 5.32743C11.6079 5.32738 10.9825 5.33887 10.614 5.35298C10.2455 5.36706 9.67596 5.39608 9.34839 5.41745C9.02082 5.43882 8.50712 5.47946 8.20685 5.50776C7.90657 5.53605 7.4208 5.58836 7.12735 5.624C6.83389 5.65963 6.43187 5.71176 6.23396 5.7398C6.03606 5.76785 5.61959 5.83219 5.3085 5.88275C4.99738 5.93332 4.73673 5.96836 4.72924 5.96064C4.72177 5.95289 4.75108 5.78119 4.79438 5.57905C4.83766 5.37692 4.92722 4.98642 4.99338 4.71127C5.05954 4.43612 5.27075 3.67027 5.46273 3.0094C5.66466 2.3143 5.83432 1.77509 5.86525 1.73016C5.89468 1.68747 5.95654 1.63619 6.00273 1.61623C6.04893 1.59627 6.32367 1.55189 6.61325 1.51756C6.90283 1.48324 7.3296 1.4377 7.56163 1.41635C7.79366 1.39501 8.21801 1.36035 8.50464 1.33931C8.79127 1.3183 9.31055 1.28867 9.65859 1.27348C10.0066 1.25827 10.4198 1.24205 10.5768 1.23746C10.7338 1.23284 11.349 1.23333 11.944 1.23854C12.5391 1.24372 13.2594 1.25973 13.5447 1.27412ZM5.11399 8.69941C5.18724 8.71958 5.30832 8.76804 5.38302 8.80711C5.45772 8.84618 5.5848 8.94211 5.66538 9.02028C5.74598 9.09845 5.85145 9.23168 5.89977 9.31634C5.94808 9.401 6.01074 9.54531 6.03901 9.63702C6.07598 9.75704 6.0909 9.87569 6.09216 10.0603C6.09336 10.2343 6.07988 10.3664 6.0503 10.4708C6.0263 10.5555 5.96724 10.6982 5.91905 10.7879C5.87083 10.8777 5.76829 11.0162 5.69114 11.0958C5.61398 11.1753 5.48298 11.2777 5.39999 11.3232C5.31701 11.3687 5.17757 11.4234 5.09011 11.4447C5.00266 11.466 4.87401 11.4836 4.80421 11.4838C4.73442 11.484 4.61717 11.4727 4.54364 11.4586C4.47013 11.4445 4.32622 11.3905 4.22386 11.3387C4.10007 11.2761 3.98721 11.1923 3.88685 11.0886C3.78689 10.9852 3.70512 10.8677 3.64455 10.7402C3.59427 10.6344 3.53548 10.4612 3.51389 10.3554C3.4863 10.22 3.47935 10.1023 3.49047 9.95851C3.49915 9.84606 3.53201 9.67748 3.5635 9.58389C3.59499 9.4903 3.66239 9.34884 3.71329 9.26957C3.76419 9.19029 3.86435 9.07025 3.93582 9.00281C4.00731 8.93539 4.12209 8.84865 4.19085 8.81009C4.25964 8.7715 4.37615 8.72322 4.44981 8.70275C4.52344 8.68227 4.67303 8.66488 4.78222 8.66414C4.89141 8.66337 5.04071 8.67925 5.11399 8.69941ZM19.5619 8.70305C19.6361 8.72558 19.7591 8.77812 19.8353 8.81981C19.9115 8.86153 20.0276 8.94988 20.0934 9.0162C20.1591 9.08249 20.2552 9.20381 20.3069 9.28581C20.3586 9.36777 20.4267 9.51208 20.4583 9.60649C20.5054 9.74747 20.5156 9.83082 20.5153 10.0732C20.515 10.3134 20.5044 10.4001 20.4579 10.5398C20.4266 10.6342 20.3589 10.7785 20.3075 10.8605C20.2562 10.9425 20.1529 11.0673 20.078 11.1378C20.0031 11.2084 19.8792 11.2978 19.8026 11.3365C19.7261 11.3751 19.5988 11.4242 19.5198 11.4455C19.4407 11.4668 19.3086 11.484 19.2262 11.4838C19.1438 11.4836 19.0048 11.466 18.9173 11.4447C18.8299 11.4234 18.6934 11.3701 18.6139 11.3264C18.5345 11.2826 18.4141 11.1919 18.3464 11.1247C18.2786 11.0576 18.1851 10.9407 18.1385 10.865C18.092 10.7893 18.0283 10.6581 17.9971 10.5734C17.956 10.4619 17.9371 10.3453 17.9284 10.1498C17.9196 9.95107 17.9271 9.83631 17.957 9.71368C17.9792 9.62212 18.0336 9.4724 18.0778 9.38094C18.1245 9.28417 18.2204 9.14976 18.307 9.05945C18.3889 8.9741 18.5242 8.86727 18.6076 8.82207C18.691 8.77684 18.8194 8.72312 18.893 8.7027C18.9665 8.68225 19.1168 8.66475 19.2269 8.66383C19.3422 8.66285 19.4843 8.67948 19.5619 8.70305ZM15.267 11.6406C15.3148 11.6632 15.3918 11.7146 15.438 11.755C15.4843 11.7953 15.5541 11.8981 15.5931 11.9833C15.6448 12.0963 15.6641 12.1773 15.6641 12.2818C15.6641 12.3907 15.6457 12.4633 15.5875 12.5836C15.5453 12.6711 15.4731 12.7719 15.4263 12.8088C15.3797 12.8455 15.2997 12.891 15.2485 12.9099C15.1726 12.9379 14.5733 12.9445 12.0136 12.9454C9.69495 12.9462 8.84978 12.9387 8.78752 12.9168C8.74114 12.9004 8.65808 12.8554 8.60296 12.8167C8.54422 12.7754 8.47236 12.6895 8.42925 12.6091C8.36587 12.4908 8.35584 12.4454 8.35637 12.2795C8.35689 12.1209 8.36882 12.0637 8.42426 11.954C8.46124 11.8808 8.52802 11.7921 8.57264 11.7569C8.61726 11.7217 8.68721 11.6795 8.72809 11.6631C8.76898 11.6466 8.85269 11.624 8.91411 11.6127C8.97553 11.6015 10.4105 11.5939 12.103 11.5959C14.8648 11.5992 15.1891 11.6038 15.267 11.6406Z"
        fill="#81868C" />
</svg>
    