<svg width="22" height="20" viewBox="0 0 22 20" fill="none" xmlns="http://www.w3.org/2000/svg">
  <path fill-rule="evenodd" clip-rule="evenodd"
    d="M0.271672 0.1719C0.144051 0.274633 0.0404276 0.436134 0.0131581 0.573112C-0.0184745 0.736957 0.00552466 0.864134 0.100422 1.01845C0.217136 1.21078 0.403656 1.30089 1.80313 1.84267L3.37494 2.45089L3.56473 3.45811C3.66836 4.01211 4.10794 6.354 4.53989 8.66223C4.97293 10.9705 5.35688 12.9771 5.39506 13.1215C5.43324 13.2657 5.55323 13.4697 5.66339 13.5747C5.81719 13.7219 5.92735 13.7655 6.14878 13.7655C6.30585 13.7655 6.43457 13.7731 6.43348 13.7822C6.43348 13.7915 6.26005 14.2675 6.04844 14.8399C5.83682 15.4123 5.66339 15.9651 5.66339 16.0683C5.66339 16.1785 5.73429 16.3243 5.83464 16.4209C5.97208 16.5523 6.07898 16.5858 6.36149 16.5858C6.55565 16.5858 6.71491 16.6016 6.71491 16.6207C6.71491 16.64 6.63745 16.7685 6.54364 16.9061C6.44984 17.0438 6.33422 17.3018 6.28841 17.4795C6.2426 17.6571 6.22297 17.9682 6.24479 18.1707C6.2666 18.3733 6.35495 18.6789 6.44112 18.8498C6.52838 19.0208 6.72254 19.2792 6.87416 19.4243C7.02578 19.5695 7.29629 19.7526 7.47517 19.8315C7.72278 19.9399 7.93768 19.9747 8.36308 19.9745C8.8343 19.9742 8.98045 19.9457 9.28259 19.794C9.48002 19.6949 9.77018 19.4747 9.92616 19.3047C10.0821 19.1347 10.2599 18.856 10.321 18.6852C10.381 18.5146 10.4312 18.1876 10.4312 17.9588C10.4312 17.7299 10.3843 17.416 10.3276 17.2612C10.2708 17.1065 10.1574 16.8911 10.0767 16.7828L9.93053 16.5858H12.2146H14.4987L14.2762 16.9643C14.0918 17.2767 14.0471 17.4355 14.0209 17.8719C13.9915 18.3621 14.0057 18.4327 14.2118 18.8335C14.3416 19.0865 14.5543 19.3646 14.7234 19.5033C14.8827 19.6339 15.1892 19.8043 15.404 19.8821C15.704 19.9909 15.8971 20.0161 16.2341 19.9911C16.5101 19.9707 16.8144 19.8919 17.0555 19.7789C17.2671 19.6801 17.5507 19.4751 17.686 19.3232C17.8212 19.1715 17.999 18.8787 18.0808 18.6727C18.1965 18.3785 18.2215 18.1951 18.1975 17.8186C18.1724 17.439 18.1201 17.2606 17.9445 16.9623L17.722 16.5858H18.1463C18.504 16.5858 18.5979 16.5596 18.7429 16.4209C18.8575 16.3111 18.9142 16.1822 18.9131 16.0348C18.912 15.9131 18.8727 15.7656 18.8258 15.707C18.7789 15.6485 18.6709 15.5652 18.5869 15.5223C18.4746 15.4648 16.9377 15.4442 12.7545 15.4442H7.07485L7.2821 14.8902C7.39555 14.5856 7.53845 14.2079 7.59844 14.0509L7.70751 13.7655H13.1352H18.563L18.7724 13.5808C18.96 13.416 19.1443 12.9057 20.4914 8.84312C21.3215 6.33889 22 4.23878 22 4.17623C22 4.11367 21.9389 3.96589 21.8637 3.84789C21.7698 3.70156 21.6422 3.61189 21.4601 3.566C21.3139 3.52889 18.1114 3.37411 14.3449 3.22189C9.39931 3.02211 7.45663 2.96511 7.35519 3.01656C7.27883 3.05589 7.15121 3.16778 7.07049 3.26534C6.99087 3.36289 6.92542 3.51567 6.92542 3.60489C6.92542 3.694 6.97233 3.85523 7.03123 3.96311C7.08904 4.071 7.20793 4.19556 7.2941 4.24C7.401 4.295 9.49421 4.40534 13.8671 4.58634C17.3958 4.73234 20.2896 4.85723 20.2984 4.86367C20.3071 4.87023 19.7552 6.55845 19.0734 8.61545L17.8343 12.3553H12.2572L6.67999 12.3552L5.7103 7.168C5.17691 4.31511 4.71114 1.89222 4.67514 1.78378C4.63915 1.67545 4.55843 1.53311 4.49735 1.46756C4.43518 1.402 3.58873 1.04497 2.61685 0.674178C1.64387 0.303378 0.766885 0 0.666534 0C0.567273 0 0.389476 0.0773554 0.271672 0.1719ZM8.7972 17.1871C8.92046 17.2591 9.07535 17.3973 9.14188 17.4943C9.20951 17.5928 9.26187 17.7996 9.26187 17.9622C9.26187 18.125 9.20951 18.3318 9.14188 18.4302C9.07535 18.5272 8.92046 18.6655 8.7972 18.7375C8.67395 18.8095 8.4776 18.8683 8.36088 18.8686C8.24526 18.8687 8.04239 18.8136 7.9115 18.7461C7.77951 18.6787 7.6148 18.5205 7.5439 18.3946C7.47409 18.2688 7.41627 18.0742 7.41627 17.9622C7.41627 17.8503 7.47409 17.6558 7.5439 17.53C7.6148 17.4041 7.77951 17.2459 7.9115 17.1785C8.04239 17.111 8.24526 17.0559 8.36088 17.056C8.4776 17.0562 8.67395 17.1151 8.7972 17.1871ZM16.497 17.1525C16.6301 17.2057 16.8024 17.3491 16.8799 17.4715C16.9606 17.5987 17.0217 17.8115 17.0217 17.9691C17.0217 18.1449 16.9639 18.3271 16.8624 18.4728C16.7588 18.6195 16.5963 18.7361 16.4065 18.7996C16.1458 18.8863 16.0749 18.8863 15.8153 18.7996C15.6244 18.7361 15.4619 18.6195 15.3593 18.4728C15.2601 18.3322 15.199 18.144 15.199 17.9826C15.199 17.8385 15.2481 17.6301 15.3081 17.5195C15.367 17.4089 15.5175 17.2595 15.6408 17.1873C15.764 17.1152 15.9527 17.0562 16.0607 17.056C16.1676 17.0559 16.3639 17.0993 16.497 17.1525Z"
    fill="white" />
</svg>
