<svg width="21" height="18" viewBox="0 0 21 18" fill="none" xmlns="http://www.w3.org/2000/svg">
    <path fill-rule="evenodd" clip-rule="evenodd" d="M0.603005 0.154711C0.486139 0.247174 0.390808 0.392518 0.366188 0.515803C0.336811 0.663261 0.359502 0.777723 0.44577 0.9166C0.553379 1.08974 0.723985 1.17078 2.00732 1.65842L3.44809 2.20583L3.62172 3.11234C3.71718 3.61092 4.11972 5.71855 4.51621 7.79596C4.91271 9.87337 5.26549 11.6794 5.30014 11.8093C5.33485 11.9391 5.44542 12.1227 5.54589 12.2172C5.68686 12.3497 5.78843 12.3889 5.99066 12.3889C6.13478 12.3889 6.25261 12.3958 6.25249 12.404C6.25236 12.4123 6.09339 12.8407 5.89919 13.3559C5.70499 13.8711 5.54602 14.3686 5.54589 14.4615C5.5457 14.5606 5.61094 14.6919 5.70345 14.7788C5.82925 14.8971 5.92689 14.9272 6.18557 14.9272C6.36395 14.9272 6.50987 14.9414 6.50987 14.9586C6.50987 14.976 6.43923 15.0916 6.35289 15.2155C6.26656 15.3394 6.16146 15.5716 6.11936 15.7315C6.07719 15.8914 6.05906 16.1714 6.07912 16.3536C6.09911 16.536 6.1803 16.811 6.25949 16.9648C6.33875 17.1187 6.51714 17.3513 6.65605 17.4819C6.7949 17.6125 7.04303 17.7773 7.2074 17.8483C7.43361 17.9459 7.63122 17.9772 8.02052 17.977C8.45339 17.9768 8.58691 17.9511 8.8641 17.8146C9.04525 17.7254 9.31067 17.5272 9.45389 17.3742C9.59718 17.2212 9.75994 16.9704 9.81561 16.8167C9.87128 16.6631 9.91685 16.3688 9.91685 16.1629C9.91685 15.9569 9.87404 15.6744 9.82178 15.5351C9.76952 15.3958 9.66628 15.202 9.59242 15.1045L9.45813 14.9272H11.5522H13.6463L13.4418 15.2679C13.2731 15.549 13.2321 15.6919 13.2079 16.0847C13.1808 16.5259 13.1936 16.5894 13.3825 16.9501C13.5018 17.1778 13.6965 17.4281 13.8518 17.553C13.9977 17.6705 14.2786 17.8239 14.4758 17.8939C14.7515 17.9918 14.9276 18.0145 15.2366 17.992C15.4895 17.9736 15.7691 17.9027 15.9903 17.801C16.1836 17.7121 16.4435 17.5276 16.5679 17.3909C16.6923 17.2543 16.855 16.9908 16.9295 16.8054C17.0358 16.5406 17.0588 16.3756 17.0365 16.0367C17.014 15.6951 16.9658 15.5345 16.8047 15.2661L16.6012 14.9272H16.9903C17.3178 14.9272 17.4045 14.9036 17.5372 14.7788C17.6424 14.68 17.6943 14.564 17.693 14.4313C17.6919 14.3218 17.6557 14.189 17.6126 14.1363C17.5696 14.0836 17.4712 14.0087 17.394 13.9701C17.2905 13.9183 15.882 13.8998 12.0469 13.8998H6.84029L7.02992 13.4012C7.13425 13.127 7.26481 12.7871 7.32003 12.6458L7.42044 12.3889H12.396H17.3716L17.564 12.2227C17.7356 12.0744 17.9054 11.6151 19.1399 7.95877C19.9009 5.70501 20.5234 3.81495 20.5232 3.75862C20.5231 3.7023 20.4667 3.56934 20.3978 3.4631C20.3123 3.33141 20.1949 3.25074 20.0284 3.2094C19.8941 3.17604 16.9584 3.03668 13.5047 2.89974C8.97087 2.71994 7.18973 2.66858 7.09748 2.71493C7.02728 2.75028 6.90971 2.85103 6.8363 2.93884C6.76283 3.02659 6.70272 3.16407 6.70272 3.24439C6.70272 3.32465 6.74643 3.46975 6.79979 3.5668C6.85321 3.66386 6.96172 3.77603 7.04085 3.81597C7.13901 3.86547 9.05804 3.96476 13.0667 4.12769C16.3017 4.25913 18.9549 4.37148 18.9627 4.37734C18.9706 4.3832 18.4655 5.90263 17.8405 7.7539L16.704 11.1198L11.5909 11.1198L6.47773 11.1197L5.58864 6.45125C5.09964 3.8836 4.67261 1.70296 4.6397 1.60542C4.60672 1.50788 4.53331 1.37976 4.47655 1.32078C4.41972 1.2618 3.64402 0.940471 2.75268 0.606756C1.86134 0.27304 1.05703 0 0.965302 0C0.873635 0 0.71055 0.0696198 0.603005 0.154711ZM8.41881 15.4684C8.53176 15.5332 8.67401 15.6576 8.73483 15.7449C8.7966 15.8335 8.84546 16.0196 8.84546 16.166C8.84546 16.3125 8.7966 16.4986 8.73483 16.5872C8.67401 16.6745 8.53176 16.7989 8.41881 16.8637C8.3058 16.9285 8.12613 16.9815 8.01949 16.9817C7.91291 16.9818 7.72713 16.9322 7.60666 16.8715C7.4862 16.8108 7.33475 16.6684 7.27014 16.5551C7.20554 16.4419 7.1527 16.2668 7.1527 16.166C7.1527 16.0653 7.20554 15.8902 7.27014 15.777C7.33475 15.6637 7.4862 15.5213 7.60666 15.4606C7.72713 15.3999 7.91291 15.3503 8.01949 15.3504C8.12613 15.3506 8.3058 15.4036 8.41881 15.4684ZM15.4779 15.4372C15.5998 15.4851 15.7578 15.6142 15.8292 15.7243C15.9035 15.8388 15.959 16.0303 15.9592 16.1722C15.9594 16.3304 15.9063 16.4944 15.8127 16.6255C15.7184 16.7575 15.5692 16.8625 15.3948 16.9196C15.1564 16.9977 15.0911 16.9977 14.8527 16.9196C14.6783 16.8625 14.5291 16.7575 14.4348 16.6255C14.3444 16.499 14.2881 16.3296 14.2881 16.1843C14.2881 16.0546 14.3329 15.8671 14.3876 15.7675C14.4424 15.668 14.5798 15.5335 14.693 15.4686C14.8061 15.4037 14.9792 15.3506 15.0776 15.3504C15.1759 15.3503 15.3561 15.3894 15.4779 15.4372Z" fill="#FF3537"/>
    </svg>
    