<svg width="28" height="28" viewBox="0 0 28 28" fill="none" xmlns="http://www.w3.org/2000/svg">
<path fill-rule="evenodd" clip-rule="evenodd" d="M13.4716 2.02728C13.3664 2.04107 13.2188 2.06627 13.1437 2.08325C13.0685 2.10024 12.9373 2.13444 12.8521 2.15922C12.767 2.18402 12.6194 2.23449 12.5242 2.27139C12.429 2.30829 12.2555 2.38702 12.1388 2.44633C12.022 2.50566 11.7801 2.64982 11.6013 2.76669C11.4224 2.88356 11.1941 3.02995 11.0939 3.09199C10.9937 3.15403 10.7928 3.27405 10.6475 3.35874C10.5022 3.44343 10.2193 3.5993 10.0189 3.70511C9.81849 3.81095 9.50836 3.96569 9.32973 4.049C9.15112 4.13231 8.8545 4.26252 8.67059 4.33835C8.48669 4.41419 8.1902 4.52733 8.01175 4.5898C7.8333 4.65228 7.57649 4.73602 7.44104 4.7759C7.30561 4.81579 7.11281 4.86945 7.01259 4.89516C6.91238 4.92088 6.64845 4.98021 6.42607 5.02705C6.2037 5.07387 5.94953 5.13814 5.86125 5.1699C5.77297 5.20163 5.61284 5.27349 5.50537 5.32958C5.39793 5.38567 5.2385 5.48339 5.1511 5.54677C5.0637 5.61013 4.91311 5.74168 4.81647 5.83911C4.71982 5.93653 4.59519 6.07964 4.53951 6.15712C4.48383 6.23459 4.39701 6.37162 4.34658 6.46165C4.29614 6.55167 4.22594 6.69931 4.19058 6.78974C4.15521 6.88016 4.10591 7.0368 4.081 7.13781C4.05611 7.23883 4.02667 7.3928 4.01557 7.47997C4.00127 7.59235 3.99724 8.59333 4.00176 10.9202C4.00756 13.9175 4.01091 14.2261 4.04039 14.4816C4.05813 14.6354 4.09643 14.9065 4.12548 15.0839C4.15452 15.2613 4.20805 15.5382 4.24445 15.6992C4.28086 15.8602 4.35073 16.1284 4.39972 16.2952C4.44874 16.462 4.53282 16.7221 4.58659 16.8732C4.64036 17.0243 4.73658 17.2739 4.8004 17.4277C4.86423 17.5815 4.99516 17.8668 5.09134 18.0617C5.18752 18.2565 5.3383 18.5418 5.42639 18.6956C5.5145 18.8494 5.68031 19.1205 5.79486 19.2978C5.9094 19.4752 6.11241 19.7689 6.24598 19.9504C6.37956 20.132 6.58129 20.3938 6.69427 20.5323C6.80727 20.6707 7.00418 20.9015 7.13185 21.045C7.25951 21.1886 7.55138 21.4952 7.78044 21.7264C8.00949 21.9576 8.32816 22.2638 8.48859 22.407C8.64901 22.5501 8.87039 22.7436 8.98053 22.837C9.09067 22.9303 9.31274 23.1113 9.47402 23.2393C9.6353 23.3671 9.93457 23.5939 10.1391 23.7432C10.3435 23.8925 10.6666 24.1194 10.857 24.2473C11.0474 24.3753 11.3303 24.5597 11.4856 24.6571C11.641 24.7546 11.9115 24.9182 12.0869 25.0207C12.2623 25.1232 12.5629 25.2924 12.7549 25.3966C12.9469 25.5008 13.2339 25.6478 13.3926 25.7232C13.5513 25.7986 13.7529 25.8917 13.8406 25.9302L14 26L14.1594 25.9302C14.2471 25.8917 14.4487 25.7986 14.6074 25.7232C14.7661 25.6478 15.0531 25.5008 15.2451 25.3966C15.4371 25.2924 15.7377 25.1232 15.9131 25.0207C16.0885 24.9182 16.359 24.7546 16.5144 24.6571C16.6697 24.5597 16.9526 24.3753 17.143 24.2473C17.3334 24.1194 17.6565 23.8925 17.8609 23.7432C18.0654 23.5939 18.3647 23.3671 18.526 23.2393C18.6873 23.1113 18.9093 22.9303 19.0195 22.837C19.1296 22.7436 19.351 22.5501 19.5114 22.407C19.6718 22.2638 19.9905 21.9576 20.2196 21.7264C20.4486 21.4952 20.7405 21.1886 20.8682 21.045C20.9958 20.9015 21.1927 20.6707 21.3057 20.5323C21.4187 20.3938 21.6204 20.132 21.754 19.9504C21.8876 19.7689 22.0906 19.4752 22.2051 19.2978C22.3197 19.1205 22.4855 18.8494 22.5736 18.6956C22.6617 18.5418 22.8125 18.2565 22.9087 18.0617C23.0048 17.8668 23.1358 17.5815 23.1996 17.4277C23.2634 17.2739 23.3596 17.0243 23.4134 16.8732C23.4672 16.7221 23.5513 16.462 23.6003 16.2952C23.6493 16.1284 23.7191 15.8602 23.7555 15.6992C23.7919 15.5382 23.8455 15.2613 23.8745 15.0839C23.9036 14.9065 23.9419 14.6354 23.9596 14.4816C23.9891 14.2261 23.9924 13.9175 23.9982 10.9202C24.0028 8.59333 23.9987 7.59235 23.9844 7.47997C23.9733 7.3928 23.9439 7.23883 23.919 7.13781C23.8941 7.0368 23.8448 6.88016 23.8094 6.78974C23.7741 6.69931 23.7039 6.55167 23.6534 6.46165C23.603 6.37162 23.5162 6.23459 23.4605 6.15712C23.4048 6.07964 23.2802 5.93653 23.1835 5.83911C23.0869 5.74168 22.9363 5.61013 22.8489 5.54677C22.7615 5.48339 22.6021 5.38567 22.4946 5.32958C22.3872 5.27349 22.227 5.20163 22.1388 5.1699C22.0505 5.13814 21.7963 5.07387 21.5739 5.02705C21.3516 4.98021 21.0876 4.92088 20.9874 4.89516C20.8872 4.86945 20.6944 4.81579 20.559 4.7759C20.4235 4.73602 20.1667 4.65228 19.9883 4.5898C19.8098 4.52733 19.5133 4.41419 19.3294 4.33835C19.1455 4.26252 18.8489 4.13231 18.6703 4.049C18.4916 3.96569 18.1815 3.81095 17.9811 3.70511C17.7807 3.5993 17.4978 3.44343 17.3525 3.35876C17.2072 3.27409 16.9968 3.14791 16.8849 3.07836C16.773 3.00881 16.5461 2.8632 16.3806 2.75479C16.2152 2.64637 15.9904 2.51168 15.8812 2.4555C15.7719 2.3993 15.6054 2.32286 15.5112 2.2856C15.4169 2.24835 15.2905 2.20229 15.2302 2.18325C15.1699 2.16421 15.0344 2.12756 14.9292 2.10181C14.824 2.07604 14.6357 2.04216 14.5107 2.02649C14.3786 2.00992 14.1537 1.99888 13.9732 2.00009C13.8025 2.00125 13.5768 2.01348 13.4716 2.02728ZM14.4526 3.92607C14.5261 3.94253 14.6472 3.97697 14.7217 4.00257C14.7963 4.02818 14.9216 4.08221 15.0002 4.12267C15.0788 4.16314 15.2692 4.27919 15.4234 4.38059C15.5775 4.482 15.8635 4.66192 16.0589 4.78045C16.2543 4.89897 16.5289 5.0605 16.6692 5.13941C16.8095 5.21832 17.1293 5.38625 17.3798 5.51258C17.6304 5.6389 17.9701 5.8025 18.1349 5.87614C18.2996 5.94975 18.5333 6.05035 18.6541 6.09969C18.775 6.14901 19.0225 6.24434 19.2041 6.31156C19.3857 6.37876 19.6726 6.47675 19.8418 6.52931C20.0109 6.58186 20.2887 6.6614 20.459 6.70606C20.6294 6.7507 20.9308 6.82071 21.129 6.86164C21.3765 6.91277 21.5264 6.9539 21.6084 6.99313C21.6815 7.02815 21.7721 7.09403 21.8428 7.16349C21.9062 7.22578 21.9834 7.32535 22.0143 7.38476C22.0453 7.44417 22.083 7.54651 22.0981 7.61222C22.122 7.71618 22.1257 8.12287 22.1258 10.743C22.1259 12.625 22.119 13.8523 22.1073 14.0154C22.097 14.159 22.0762 14.3753 22.0611 14.4962C22.046 14.617 22.0173 14.81 21.9972 14.925C21.9771 15.0401 21.928 15.2685 21.8881 15.4325C21.8482 15.5966 21.7672 15.8777 21.7081 16.0572C21.6491 16.2367 21.5543 16.4968 21.4976 16.6352C21.4408 16.7737 21.3269 17.0254 21.2444 17.1946C21.1619 17.3638 21.0425 17.5946 20.9792 17.7074C20.9158 17.8202 20.7703 18.0584 20.6559 18.2367C20.5414 18.415 20.3671 18.6714 20.2684 18.8065C20.1697 18.9417 19.999 19.163 19.8891 19.2984C19.7791 19.4338 19.5821 19.6645 19.4513 19.8112C19.3204 19.9579 19.066 20.2251 18.886 20.405C18.7059 20.5849 18.4204 20.8562 18.2516 21.0079C18.0828 21.1595 17.8094 21.3942 17.644 21.5293C17.4787 21.6645 17.245 21.8507 17.1247 21.9431C17.0045 22.0355 16.7667 22.2111 16.5964 22.3333C16.426 22.4555 16.1484 22.6466 15.9794 22.758C15.8105 22.8694 15.5374 23.0437 15.3726 23.1452C15.2077 23.2467 14.9276 23.4126 14.7501 23.5139C14.5726 23.6152 14.3307 23.7472 14.2125 23.8073L13.9976 23.9165L13.7126 23.7674C13.5559 23.6853 13.2756 23.5295 13.0898 23.4211C12.904 23.3128 12.6207 23.1415 12.4604 23.0406C12.3001 22.9397 12.0273 22.7614 11.8541 22.6444C11.681 22.5274 11.4064 22.3344 11.2438 22.2155C11.0812 22.0966 10.862 21.9318 10.7568 21.8492C10.6516 21.7667 10.4647 21.6163 10.3414 21.5151C10.2181 21.4138 10.0172 21.2427 9.895 21.1348C9.77276 21.0268 9.52992 20.803 9.35539 20.6375C9.18084 20.4719 8.9086 20.1959 8.75041 20.024C8.5922 19.8521 8.37586 19.6076 8.26962 19.4807C8.16338 19.3538 8.00062 19.1504 7.90793 19.0287C7.81524 18.907 7.66821 18.7057 7.58117 18.5812C7.49413 18.4568 7.3583 18.2512 7.27932 18.1244C7.20033 17.9976 7.08834 17.8099 7.03045 17.7074C6.97257 17.6048 6.86237 17.3948 6.78557 17.2407C6.70879 17.0866 6.59029 16.8265 6.52226 16.6627C6.45422 16.4989 6.34665 16.2054 6.28323 16.0106C6.2198 15.8157 6.13885 15.5346 6.10334 15.3859C6.06783 15.2372 6.01812 14.9939 5.99289 14.8452C5.96765 14.6965 5.93325 14.4657 5.91646 14.3324C5.88916 14.1159 5.88517 13.7507 5.87914 10.917C5.87311 8.09212 5.87548 7.73022 5.90079 7.61856C5.91642 7.54957 5.95457 7.44445 5.98556 7.38495C6.01656 7.32543 6.09377 7.22578 6.15716 7.16349C6.22736 7.0945 6.31854 7.02815 6.3904 6.99373C6.47075 6.95525 6.62371 6.91331 6.86982 6.86229C7.0686 6.82109 7.37062 6.75081 7.54098 6.70611C7.71134 6.66142 7.9891 6.58186 8.15824 6.52931C8.32737 6.47675 8.61434 6.37876 8.79594 6.31156C8.97754 6.24434 9.22501 6.14901 9.34586 6.09969C9.4667 6.05035 9.70037 5.94975 9.86513 5.87614C10.0299 5.8025 10.3696 5.6389 10.6202 5.51256C10.8707 5.38621 11.1987 5.2137 11.349 5.12921C11.4993 5.04473 11.774 4.88314 11.9593 4.77014C12.1447 4.65715 12.4225 4.4818 12.5766 4.38048C12.7308 4.27913 12.9222 4.1626 13.0022 4.12148C13.0821 4.08035 13.2183 4.0231 13.305 3.99426C13.3916 3.96541 13.524 3.93163 13.5992 3.91919C13.6743 3.90673 13.7481 3.89353 13.7631 3.88986C13.7782 3.88618 13.9094 3.88607 14.0547 3.88963C14.205 3.89333 14.3765 3.90903 14.4526 3.92607ZM15.7218 12.3468C14.2287 14.0171 13.0014 15.3822 12.9945 15.3802C12.9876 15.3782 12.3098 14.7349 11.4881 13.9506C10.6665 13.1663 9.98655 12.522 9.97722 12.5188C9.96788 12.5157 9.67194 12.8172 9.31957 13.189L8.67891 13.8649L8.75675 13.9434C8.79957 13.9866 9.7932 14.9371 10.9648 16.0555C12.7578 17.7672 13.0993 18.0854 13.1222 18.066C13.1371 18.0534 14.6505 16.3663 16.4853 14.3169C18.3201 12.2675 19.823 10.5809 19.8251 10.569C19.8271 10.557 19.5205 10.2704 19.1436 9.93193C18.7667 9.59351 18.4535 9.31506 18.4475 9.31318C18.4415 9.3113 17.2149 10.6764 15.7218 12.3468Z" fill="#FF3537"/>
</svg>
