<svg width="151" height="28" viewBox="0 0 151 28" fill="none" xmlns="http://www.w3.org/2000/svg">
    <path d="M6.38904 27.6111V6.41667L1.93607 7.97222L0 3.5L7.16347 0.388889H13.3589V27.6111H6.38904ZM33.1174 7.77778C33.1174 6.22222 32.343 5.44445 30.7941 5.44445H26.5348C24.9859 5.44445 24.2115 6.22222 24.2115 7.77778V20.2222C24.2115 21.7778 24.9859 22.5556 26.5348 22.5556H30.7941C32.343 22.5556 33.1174 21.7778 33.1174 20.2222V7.77778ZM40.0873 20.2222C40.0873 22.9444 39.4677 24.9278 38.2287 26.1722C37.0154 27.3907 35.0535 28 32.343 28H24.9859C22.2754 28 20.3006 27.3907 19.0615 26.1722C17.8483 24.9278 17.2416 22.9444 17.2416 20.2222V7.77778C17.2416 5.05556 17.8483 3.08519 19.0615 1.86666C20.3006 0.622224 22.2754 0 24.9859 0H32.343C35.0535 0 37.0154 0.622224 38.2287 1.86666C39.4677 3.08519 40.0873 5.05556 40.0873 7.77778V20.2222ZM59.058 7.77778C59.058 6.22222 58.2835 5.44445 56.7347 5.44445H52.4753C50.9264 5.44445 50.152 6.22222 50.152 7.77778V20.2222C50.152 21.7778 50.9264 22.5556 52.4753 22.5556H56.7347C58.2835 22.5556 59.058 21.7778 59.058 20.2222V7.77778ZM66.0278 20.2222C66.0278 22.9444 65.4083 24.9278 64.1692 26.1722C62.9559 27.3907 60.994 28 58.2835 28H50.9264C48.2159 28 46.2412 27.3907 45.0021 26.1722C43.7888 24.9278 43.1822 22.9444 43.1822 20.2222V7.77778C43.1822 5.05556 43.7888 3.08519 45.0021 1.86666C46.2412 0.622224 48.2159 0 50.9264 0H58.2835C60.994 0 62.9559 0.622224 64.1692 1.86666C65.4083 3.08519 66.0278 5.05556 66.0278 7.77778V20.2222ZM84.9983 7.77778C84.9983 6.22222 84.2239 5.44445 82.675 5.44445H78.4157C76.8668 5.44445 76.0924 6.22222 76.0924 7.77778V20.2222C76.0924 21.7778 76.8668 22.5556 78.4157 22.5556H82.675C84.2239 22.5556 84.9983 21.7778 84.9983 20.2222V7.77778ZM91.9682 20.2222C91.9682 22.9444 91.3486 24.9278 90.1095 26.1722C88.8963 27.3907 86.9344 28 84.2239 28H76.8668C74.1563 28 72.1815 27.3907 70.9424 26.1722C69.7292 24.9278 69.1225 22.9444 69.1225 20.2222V7.77778C69.1225 5.05556 69.7292 3.08519 70.9424 1.86666C72.1815 0.622224 74.1563 0 76.8668 0H84.2239C86.9344 0 88.8963 0.622224 90.1095 1.86666C91.3486 3.08519 91.9682 5.05556 91.9682 7.77778V20.2222Z" fill="#202020"/>
    <path d="M102.226 19.4442V27.6109H95.4502V0.388672H102.226V14.1942H105.324L109.584 6.99978H116.747L110.939 16.9164L116.747 27.6109H109.584L105.131 19.4442H102.226ZM132.414 6.61089C134.505 6.61089 136.118 7.38867 137.254 8.94423C138.441 8.14052 139.719 7.55719 141.087 7.19423C142.481 6.80534 143.72 6.61089 144.805 6.61089H145.192C146.947 6.61089 148.354 7.14238 149.412 8.20534C150.471 9.2683 151 10.6813 151 12.4442V27.6109H144.224V13.6109C144.224 13.222 144.095 12.8979 143.837 12.6387C143.578 12.3794 143.256 12.2498 142.868 12.2498H142.675C141.513 12.2498 140.029 12.509 138.222 13.0276V27.6109H131.446V13.6109C131.446 13.222 131.317 12.8979 131.058 12.6387C130.8 12.3794 130.478 12.2498 130.09 12.2498H129.897C128.735 12.2498 127.251 12.509 125.444 13.0276V27.6109H118.668V6.99978H124.669L125.057 8.94423C126.27 8.14052 127.509 7.55719 128.774 7.19423C130.065 6.80534 131.149 6.61089 132.026 6.61089H132.414Z" fill="#FF3537"/>
    </svg>
    