<svg width="28" height="28" viewBox="0 0 28 28" fill="none" xmlns="http://www.w3.org/2000/svg">
<rect x="8.50007" y="2.1999" width="6.45" height="8.9" rx="3.225" stroke="#FF3537" stroke-width="1.6"/>
<path d="M18.0251 7.0998C18.4669 7.0998 18.8251 6.74163 18.8251 6.2998C18.8251 5.85798 18.4669 5.4998 18.0251 5.4998V7.0998ZM8.2251 7.0998H18.0251V5.4998H8.2251V7.0998Z" fill="#FF3537"/>
<path d="M9.1001 21.5251V13.4751H11.0251M18.2001 24.1501H24.3251V13.4751H15.4001M15.4001 13.4751V21.5251M15.4001 13.4751H13.3001M11.0251 13.4751V16.2751H13.3001V13.4751M11.0251 13.4751H13.3001" stroke="#FF3537" stroke-width="1.6" stroke-miterlimit="11.4737" stroke-linejoin="round"/>
<path d="M19.6001 20.4751H22.5751M22.5751 22.4001H20.8251" stroke="#FF3537" stroke-width="1.6" stroke-miterlimit="11.4737" stroke-linecap="round" stroke-linejoin="round"/>
<path d="M7.70005 11.5498L5.95005 12.4248C4.37505 13.1248 3.67505 14.2446 3.67505 15.9946V22.3998C3.67505 24.3248 5.25005 25.8998 6.82505 25.8998H15.75C18.9 25.8998 18.9 21.3498 15.75 21.3498H8.05005" stroke="#FF3537" stroke-width="1.6" stroke-miterlimit="11.4737" stroke-linecap="round" stroke-linejoin="round"/>
</svg>
