<svg width="28" height="28" viewBox="0 0 28 28" fill="none" xmlns="http://www.w3.org/2000/svg">
<path d="M9 12.1818H19M9 12.1818V19H19V12.1818M9 12.1818L11.1739 9H16.8261L19 12.1818" stroke="#FF3537" stroke-width="1.8" stroke-linejoin="round"/>
<path d="M25.7903 15.6216C25.8575 15.1291 25.5127 14.6754 25.0202 14.6083C24.5277 14.5411 24.074 14.8859 24.0068 15.3784L25.7903 15.6216ZM14 24.1C8.42192 24.1 3.9 19.5781 3.9 14H2.1C2.1 20.5722 7.42781 25.9 14 25.9V24.1ZM3.9 14C3.9 8.42192 8.42192 3.9 14 3.9V2.1C7.42781 2.1 2.1 7.42781 2.1 14H3.9ZM14 3.9C16.2338 3.9 18.2958 4.6241 19.9676 5.85062L21.0324 4.3993C19.0622 2.95391 16.6295 2.1 14 2.1V3.9ZM24.0068 15.3784C23.3352 20.3041 19.1102 24.1 14 24.1V25.9C20.0225 25.9 24.9988 21.427 25.7903 15.6216L24.0068 15.3784Z" fill="#FF3537"/>
<path d="M22.7315 6.81386C22.7735 6.94367 22.676 7.07642 22.5396 7.0753L18.8573 7.04498C18.6942 7.04364 18.6012 6.8581 18.6978 6.72661L21.2486 3.25268C21.3452 3.1212 21.5501 3.15438 21.6002 3.30961L22.7315 6.81386Z" fill="#FF3537"/>
</svg>
