<svg width="14" height="14" viewBox="0 0 14 14" fill="none" xmlns="http://www.w3.org/2000/svg">
  <path d="M6.57227 1.4502C6.69855 1.06154 7.22151 1.03691 7.39746 1.37695L7.42773 1.4502L8.50781 4.77441C8.66176 5.2481 9.1035 5.56823 9.60156 5.56836H13.0977C13.506 5.5686 13.6905 6.05865 13.4219 6.33105L13.3623 6.38281L10.5342 8.4375C10.1815 8.69372 10.0079 9.12318 10.0732 9.54395L10.1162 9.72363L11.1963 13.0479C11.3224 13.4365 10.9135 13.7635 10.5713 13.5918L10.5039 13.5508L7.67578 11.4961C7.32312 11.24 6.86139 11.2082 6.48145 11.4004L6.32422 11.4961L3.49609 13.5508C3.16535 13.7911 2.72722 13.5028 2.78516 13.124L2.80371 13.0479L3.88379 9.72363C4.01845 9.30918 3.90641 8.85963 3.60645 8.55762L3.46582 8.4375L0.637695 6.38281C0.285549 6.12653 0.466769 5.56861 0.902344 5.56836H4.39844C4.83424 5.56825 5.22647 5.32306 5.4209 4.94434L5.49219 4.77441L6.57227 1.4502Z" fill="white" stroke="#FF3537" stroke-width="0.7"/>
  </svg>
