<svg width="16" height="17" viewBox="0 0 16 17" fill="none" xmlns="http://www.w3.org/2000/svg">
<path fill-rule="evenodd" clip-rule="evenodd" d="M6.0943 0.0101577C6.06559 0.0139926 5.97946 0.0329737 5.90289 0.0523594C5.82633 0.0717275 5.71671 0.103691 5.65929 0.123358C5.60186 0.143025 5.46835 0.201358 5.36257 0.252989C5.25681 0.304602 5.10781 0.393667 5.03147 0.450875C4.95515 0.508099 4.85942 0.593857 4.81873 0.641442C4.77807 0.689044 4.71955 0.779235 4.68872 0.841878L4.63265 0.955782L4.62395 1.53674L4.61525 2.11769H2.66638H0.717517L0.601107 2.15836C0.537073 2.18072 0.438934 2.22892 0.383008 2.26546C0.327082 2.302 0.251303 2.36682 0.214605 2.4095C0.177925 2.45219 0.122051 2.54096 0.0904692 2.60675C0.0588871 2.67256 0.0236335 2.78274 0.0121491 2.85161C-0.00366804 2.94635 -0.00398125 3.00597 0.0108615 3.09678C0.0216324 3.16276 0.048934 3.25841 0.0715025 3.30932C0.0940885 3.36021 0.141871 3.44144 0.177698 3.48982C0.213526 3.5382 0.276482 3.60387 0.317599 3.63574C0.358734 3.66763 0.432548 3.71332 0.481635 3.73726C0.530739 3.7612 0.619552 3.79239 0.679009 3.80655C0.773042 3.82898 1.7268 3.83236 8.00123 3.83259C15.1411 3.83285 15.2167 3.8325 15.3504 3.79793C15.4247 3.77872 15.5265 3.73928 15.5766 3.71031C15.6267 3.68134 15.707 3.61783 15.7551 3.56919C15.8033 3.52055 15.867 3.43448 15.8968 3.37792C15.9267 3.32137 15.9637 3.2205 15.9792 3.15377C15.9983 3.07171 16.0041 2.99508 15.9972 2.91699C15.9915 2.85349 15.9716 2.75652 15.9529 2.70152C15.9341 2.64651 15.8902 2.55793 15.8553 2.5047C15.8203 2.45145 15.7558 2.37597 15.712 2.33695C15.6682 2.29793 15.5769 2.23846 15.5092 2.20477C15.4185 2.1596 15.3474 2.13886 15.2383 2.12573C15.1448 2.11449 14.4076 2.10974 13.2337 2.11282L11.3771 2.11769L11.3719 1.53676L11.3667 0.9558L11.3106 0.841896C11.2798 0.779235 11.2213 0.689044 11.1806 0.641442C11.1399 0.593857 11.0442 0.508099 10.9679 0.450875C10.8915 0.393667 10.7425 0.30418 10.6368 0.252057C10.531 0.199916 10.3708 0.133104 10.2807 0.103586C10.1907 0.0740672 10.0506 0.0382159 9.96957 0.0239141C9.84514 0.0019777 9.53576 -0.00166372 7.98434 0.000570384C6.97354 0.00201288 6.12301 0.00634036 6.0943 0.0101577ZM9.68472 1.89587C9.68819 2.00836 9.68359 2.09168 9.6736 2.09792C9.66426 2.10378 8.90796 2.10879 7.99297 2.10907L6.32935 2.1096L6.32239 1.90695L6.31543 1.7043L7.99713 1.70437L9.67882 1.70444L9.68472 1.89587ZM13.723 5.14098C13.719 5.14448 13.5083 5.15236 13.2546 5.1585C13.001 5.16464 12.6624 5.16971 12.5021 5.16973L12.2106 5.1698V10.025V14.8802H11.5842H10.9578V10.025V5.1698H9.89633H8.8349V10.0252V14.8807L8.21282 14.8761L7.59075 14.8714L7.58637 10.0206L7.58198 5.1698H6.52928H5.47658V10.025V14.8802H4.85016H4.22374V10.025V5.1698L3.05355 5.16712C2.40993 5.16565 1.8677 5.16471 1.84856 5.16503C1.82942 5.16535 1.78243 5.16656 1.74415 5.1677L1.67455 5.1698L1.68381 10.3812C1.68891 13.2475 1.69943 15.6204 1.70719 15.6543C1.71497 15.6881 1.73698 15.7633 1.75614 15.8214C1.7753 15.8794 1.82155 15.9906 1.85893 16.0683C1.8963 16.1461 1.97923 16.2759 2.04322 16.3568C2.1072 16.4376 2.22269 16.5546 2.29986 16.6168C2.38107 16.6822 2.52081 16.7697 2.63158 16.8245C2.73686 16.8766 2.88955 16.9374 2.97089 16.9596L3.1188 17H7.99097H12.8631L13.0057 16.9615C13.0841 16.9403 13.1956 16.9037 13.2533 16.8801C13.3111 16.8566 13.4192 16.8027 13.4936 16.7604C13.5915 16.7047 13.6815 16.6302 13.8202 16.4899C13.9593 16.3493 14.0326 16.2588 14.0881 16.1591C14.1301 16.0836 14.184 15.9688 14.2078 15.904C14.2316 15.8392 14.2636 15.7427 14.2788 15.6894C14.3039 15.6021 14.307 15.0848 14.3116 10.3747L14.3166 5.15671L14.262 5.14566C14.2319 5.13959 14.1 5.13461 13.9688 5.13461C13.8376 5.13461 13.727 5.13748 13.723 5.14098Z" fill="#FF3537"/>
</svg>
