<svg width="17" height="19" viewBox="0 0 17 19" fill="none" xmlns="http://www.w3.org/2000/svg">
    <path fill-rule="evenodd" clip-rule="evenodd"
        d="M7.48626 0.0895084C7.60008 0.0678997 7.76205 0.0426087 7.84618 0.0332869C8.29068 -0.0135488 8.54577 -0.00835253 9.00521 0.0325896C9.00574 0.0326412 9.00631 0.0326926 9.00695 0.0327443C9.11583 0.0415816 9.29399 0.0625895 9.40287 0.0794114C9.51174 0.0962332 9.69396 0.132241 9.80778 0.159431C9.92161 0.186602 10.1119 0.243095 10.2307 0.284956C10.3495 0.326836 10.5479 0.413697 10.6716 0.478C10.7953 0.542303 10.9871 0.659784 11.0977 0.739068C11.217 0.824553 11.3802 0.967229 11.4989 1.08967C11.6089 1.2032 11.754 1.37547 11.8213 1.47245C11.8886 1.56944 11.9827 1.71857 12.0305 1.80384C12.0783 1.88912 12.1531 2.04168 12.1968 2.14288C12.2404 2.24406 12.3082 2.42701 12.3474 2.54943C12.3866 2.67186 12.4381 2.85506 12.4618 2.95655C12.4854 3.05802 12.5135 3.20998 12.5242 3.29421C12.5349 3.37841 12.5526 3.6226 12.5635 3.83685C12.5747 4.05605 12.5784 4.40429 12.572 4.63333C12.5657 4.85717 12.5524 5.1406 12.5424 5.26318C12.5323 5.38576 12.5036 5.62122 12.4785 5.78644C12.4534 5.95165 12.4047 6.22427 12.3703 6.39224C12.3359 6.56022 12.2763 6.81749 12.2377 6.96395C12.1992 7.11042 12.1257 7.36106 12.0744 7.52095C12.0232 7.68083 11.9294 7.93859 11.866 8.09374C11.8026 8.2489 11.7016 8.47129 11.6416 8.58793C11.5816 8.70458 11.4733 8.89608 11.401 9.01346C11.3287 9.13085 11.2142 9.30091 11.1466 9.39137C11.079 9.48184 10.946 9.63911 10.8511 9.74087C10.7561 9.84263 10.6101 9.98324 10.5266 10.0533C10.443 10.1234 10.3041 10.2302 10.2179 10.2906C10.1316 10.351 9.96156 10.4518 9.83994 10.5147C9.71832 10.5775 9.55404 10.6514 9.47485 10.6789C9.39567 10.7064 9.2418 10.7482 9.13292 10.7718C8.96331 10.8086 8.87568 10.8148 8.52105 10.8151C8.25461 10.8154 8.05905 10.8064 7.97216 10.7898C7.89792 10.7756 7.7562 10.7425 7.65722 10.7161C7.55824 10.6898 7.39628 10.6335 7.2973 10.591C7.19832 10.5484 7.03104 10.4606 6.92556 10.3959C6.82011 10.3311 6.66219 10.2203 6.57464 10.1497C6.4871 10.0791 6.31529 9.91665 6.19283 9.78862C6.07036 9.6606 5.90487 9.46864 5.82505 9.36205C5.74524 9.25546 5.61899 9.06796 5.54449 8.94538C5.46999 8.8228 5.34324 8.58297 5.26281 8.41243C5.18237 8.24188 5.0675 7.96717 5.00753 7.80196C4.94757 7.63674 4.86903 7.40128 4.83302 7.2787C4.79701 7.15612 4.73154 6.89885 4.6875 6.70699C4.64349 6.51513 4.58309 6.22036 4.55331 6.05196C4.5235 5.88357 4.48704 5.6481 4.47227 5.5287C4.45749 5.4093 4.43595 5.09676 4.42438 4.83414C4.40856 4.47511 4.40838 4.24191 4.42364 3.89421C4.43538 3.62644 4.45883 3.33795 4.47932 3.2089C4.49881 3.08632 4.54407 2.88137 4.57994 2.75347C4.61581 2.62556 4.68729 2.41189 4.73879 2.27866C4.7903 2.14542 4.88314 1.9448 4.9451 1.83282C5.00707 1.72086 5.10002 1.56824 5.15165 1.49367C5.20328 1.41911 5.31036 1.28508 5.3896 1.19582C5.46883 1.10655 5.59844 0.977365 5.67763 0.908701C5.75681 0.840057 5.8911 0.737324 5.97606 0.680424C6.06102 0.623505 6.19034 0.544512 6.26344 0.50488C6.33654 0.465229 6.48892 0.394259 6.60206 0.347185C6.71522 0.300092 6.91388 0.23168 7.04355 0.195168C7.17321 0.158637 7.37243 0.111098 7.48626 0.0895084ZM16.9873 15.6509C16.98 15.4643 16.9653 15.2548 16.9545 15.1852C16.9437 15.1157 16.9145 14.9942 16.8896 14.9153C16.8647 14.8363 16.8125 14.7014 16.7736 14.6154C16.7347 14.5294 16.6647 14.3979 16.618 14.3233C16.5713 14.2487 16.4867 14.1266 16.4299 14.052C16.3732 13.9774 16.2387 13.8244 16.1311 13.7119C16.0236 13.5995 15.8586 13.4436 15.7646 13.3654C15.6705 13.2872 15.5005 13.156 15.3866 13.0739C15.2728 12.9917 15.0906 12.8692 14.9817 12.8016C14.8729 12.734 14.638 12.6027 14.4598 12.5098C14.2817 12.4169 13.9942 12.2798 13.821 12.2051C13.6478 12.1304 13.3603 12.0127 13.1821 11.9434C13.0039 11.8742 12.714 11.7687 12.5377 11.7089C12.3615 11.6492 12.0578 11.5533 11.8629 11.4959C11.6679 11.4384 11.3402 11.35 11.1346 11.2994C10.929 11.2487 10.7582 11.2107 10.7551 11.2149C10.7519 11.2191 10.7022 11.3185 10.6445 11.4357C10.5869 11.553 10.4915 11.7317 10.4325 11.833C10.3736 11.9343 10.2644 12.1087 10.1898 12.2206C10.1152 12.3325 9.96331 12.5464 9.85222 12.696C9.74113 12.8455 9.54873 13.0897 9.42464 13.2386C9.30058 13.3875 9.04098 13.6788 8.84779 13.8858L8.4965 14.2622L8.31981 14.0867C8.22263 13.9902 8.0216 13.7772 7.87305 13.6134C7.72451 13.4496 7.51395 13.2022 7.40515 13.0636C7.29634 12.9249 7.14193 12.72 7.06203 12.6081C6.98213 12.4962 6.85954 12.3175 6.78962 12.2109C6.71969 12.1043 6.61021 11.9255 6.54635 11.8136C6.48246 11.7017 6.38708 11.5229 6.33435 11.4163C6.28164 11.3097 6.23622 11.2193 6.23343 11.2154C6.23062 11.2115 6.12872 11.2319 6.00698 11.2607C5.88521 11.2895 5.63983 11.352 5.46167 11.3996C5.28351 11.4473 4.98792 11.5333 4.8048 11.5909C4.62169 11.6485 4.30586 11.7561 4.10295 11.83C3.90004 11.9039 3.6004 12.021 3.43708 12.0903C3.27377 12.1596 3.05106 12.2573 2.94218 12.3075C2.83331 12.3577 2.59441 12.4794 2.41129 12.578C2.22818 12.6766 1.96903 12.8274 1.83541 12.9132C1.70179 12.9991 1.51148 13.1325 1.4125 13.2098C1.31352 13.2871 1.1637 13.4132 1.07956 13.4901C0.995431 13.5669 0.850525 13.7156 0.757538 13.8204C0.664569 13.9251 0.541941 14.0785 0.485037 14.1611C0.428115 14.2438 0.343694 14.3768 0.297389 14.4568C0.251103 14.5368 0.185596 14.6728 0.151817 14.7591C0.118038 14.8453 0.0787879 14.9657 0.0646068 15.0266C0.0504077 15.0875 0.0328253 15.1853 0.0255548 15.2439C0.0182662 15.3025 0.00676662 15.4987 0 15.6799L0.000935776 17.0522C0.00860221 17.1674 0.024583 17.3243 0.0364245 17.401C0.0482841 17.4777 0.0802457 17.6122 0.107456 17.6999C0.134667 17.7876 0.184318 17.9088 0.217828 17.9693C0.251319 18.0297 0.34301 18.1527 0.421582 18.2426C0.500154 18.3325 0.614791 18.4448 0.676338 18.492C0.737886 18.5394 0.860099 18.6165 0.947921 18.6635C1.03574 18.7105 1.20048 18.7792 1.31404 18.8162C1.42758 18.8533 1.6217 18.9029 1.74543 18.9267C1.95426 18.9667 2.04588 18.9708 3.02317 18.9831L13.9649 18.9828C14.8188 18.9718 15.05 18.9632 15.1887 18.9373C15.2827 18.9197 15.4374 18.8843 15.5324 18.8585C15.6274 18.8328 15.757 18.7907 15.8203 18.765C15.8837 18.7393 15.9963 18.6854 16.0705 18.6451C16.1447 18.6049 16.251 18.5388 16.3066 18.4981C16.3622 18.4575 16.4588 18.3693 16.5212 18.3021C16.5837 18.2349 16.6734 18.1164 16.7206 18.0387C16.7677 17.9609 16.8312 17.828 16.8615 17.7432C16.8919 17.6584 16.929 17.5345 16.9441 17.4678C16.9592 17.4012 16.9765 17.2485 16.9826 17.1286C16.9887 17.0087 16.9965 16.9106 17 16.9106L16.9873 15.6509Z"
        fill="#81868C" />
</svg>
    