<svg width="26" height="26" viewBox="0 0 26 26" fill="none" xmlns="http://www.w3.org/2000/svg">
    <rect width="26" height="26" rx="13" fill="#7B519D"/>
    <path fill-rule="evenodd" clip-rule="evenodd" d="M12.3726 5.20189C12.3308 5.20407 12.1965 5.21125 12.0742 5.21786C11.9519 5.22446 11.7649 5.23754 11.6587 5.24693C11.5525 5.25631 11.3787 5.27406 11.2725 5.28636C11.1663 5.29867 10.9741 5.32386 10.8454 5.34233C10.7166 5.36082 10.5244 5.39124 10.4182 5.40993C10.312 5.42862 10.118 5.46697 9.98722 5.49513C9.8564 5.52329 9.66418 5.56893 9.56005 5.59655C9.45594 5.62417 9.26279 5.68166 9.13084 5.72429C8.99889 5.76692 8.82246 5.82813 8.73878 5.86029C8.65511 5.89246 8.50501 5.95425 8.40524 5.9976C8.30547 6.04096 8.15801 6.10979 8.07756 6.15055C7.9971 6.19132 7.86544 6.2627 7.78498 6.30915C7.70452 6.35561 7.59129 6.4242 7.53336 6.46157C7.47543 6.49893 7.36747 6.5736 7.29344 6.6275C7.21942 6.68139 7.10093 6.77366 7.03012 6.83252C6.95932 6.89139 6.83029 7.01006 6.7434 7.09624C6.6565 7.18241 6.53268 7.31629 6.46823 7.39373C6.40379 7.47118 6.30848 7.59543 6.25644 7.66984C6.20439 7.74425 6.13162 7.85478 6.09472 7.91546C6.05782 7.97615 5.9864 8.10806 5.93602 8.20859C5.88564 8.30912 5.81477 8.46626 5.77854 8.55777C5.74231 8.64929 5.68968 8.80149 5.66158 8.89599C5.63348 8.9905 5.5968 9.12675 5.58009 9.19879C5.56337 9.27084 5.5264 9.45855 5.49793 9.61593C5.46946 9.77332 5.43016 10.0036 5.41058 10.1276C5.39101 10.2516 5.36187 10.4494 5.34584 10.5673C5.32981 10.6851 5.3061 10.8753 5.29315 10.99C5.28021 11.1047 5.26403 11.2569 5.25722 11.3282C5.2504 11.3996 5.23677 11.5619 5.22691 11.689C5.21707 11.8161 5.20598 12.1484 5.20227 12.4275C5.19796 12.7525 5.20043 13.0239 5.20916 13.1828C5.21665 13.3192 5.23072 13.5171 5.24042 13.6225C5.25013 13.7279 5.26602 13.8776 5.27575 13.9551C5.28549 14.0326 5.3038 14.1645 5.31648 14.2482C5.32914 14.3319 5.35541 14.4841 5.37486 14.5864C5.39431 14.6887 5.43161 14.8637 5.45776 14.9753C5.4839 15.0869 5.53343 15.2771 5.56781 15.3981C5.60221 15.519 5.66208 15.7073 5.70087 15.8165C5.73966 15.9257 5.80086 16.0825 5.83686 16.1648C5.87287 16.2472 5.94116 16.3893 5.98861 16.4806C6.03608 16.5719 6.10239 16.6917 6.13598 16.7467C6.16955 16.8018 6.24323 16.9128 6.29967 16.9934C6.35613 17.074 6.4485 17.1958 6.50496 17.264C6.56141 17.3322 6.69214 17.4695 6.79545 17.569C6.89878 17.6685 7.04124 17.7944 7.11204 17.8487C7.18285 17.9031 7.31069 17.9929 7.39615 18.0483C7.4816 18.1038 7.60799 18.1763 7.67703 18.2096C7.74605 18.2429 7.86328 18.2935 7.93754 18.322C8.0118 18.3506 8.18929 18.4143 8.33197 18.4636C8.47464 18.513 8.64962 18.577 8.7208 18.6059C8.79197 18.6349 8.86201 18.6678 8.87641 18.679C8.89296 18.6919 8.90268 18.7117 8.90276 18.7327L8.90848 20.1802L8.91302 21.3289C8.91375 21.5129 9.06225 21.6622 9.24626 21.6639C9.45934 21.6658 9.66501 21.5858 9.82075 21.4403L9.91332 21.3538C10.0976 21.1817 10.5636 20.7389 10.9487 20.37C11.3339 20.0011 11.742 19.6029 11.8557 19.4852C11.9695 19.3674 12.0862 19.2475 12.1151 19.2187C12.149 19.1849 12.1943 19.165 12.2421 19.1629L12.3141 19.1597C12.3946 19.1562 12.6684 19.1478 12.9227 19.1411C13.1769 19.1344 13.5666 19.1215 13.7887 19.1124C14.0108 19.1033 14.3452 19.0882 14.5318 19.0789C14.7185 19.0695 14.9818 19.0543 15.117 19.045C15.2522 19.0356 15.4418 19.0203 15.5383 19.0109C15.6349 19.0015 15.7981 18.9836 15.9011 18.971C16.0041 18.9585 16.1779 18.9337 16.2873 18.9159C16.3967 18.8981 16.5732 18.8655 16.6795 18.8434C16.7858 18.8214 16.9517 18.7825 17.0482 18.7571C17.1446 18.7317 17.2894 18.6905 17.3699 18.6656C17.4503 18.6406 17.603 18.5874 17.7093 18.5472C17.8155 18.5071 17.9866 18.4345 18.0896 18.3859C18.1926 18.3373 18.348 18.2561 18.4348 18.2054C18.5217 18.1548 18.6455 18.0771 18.7099 18.0328C18.7742 17.9885 18.8875 17.9034 18.9615 17.8435C19.0355 17.7837 19.162 17.6694 19.2425 17.5896C19.323 17.5097 19.433 17.3911 19.4868 17.326C19.5407 17.2609 19.6281 17.1442 19.6811 17.0667C19.7341 16.9892 19.8075 16.8731 19.8442 16.8088C19.8809 16.7444 19.948 16.615 19.9932 16.5213C20.0384 16.4275 20.1045 16.2823 20.1402 16.1986C20.1759 16.1149 20.2333 15.9712 20.2677 15.8794C20.3021 15.7875 20.3544 15.6353 20.3839 15.5411C20.4134 15.447 20.458 15.2936 20.483 15.2002C20.508 15.1068 20.5474 14.9419 20.5705 14.8338C20.5937 14.7256 20.6254 14.5611 20.641 14.4681C20.6566 14.375 20.68 14.2152 20.6929 14.1129C20.7059 14.0106 20.7244 13.8381 20.7341 13.7296C20.7437 13.6211 20.7601 13.4106 20.7703 13.2617C20.7806 13.1129 20.7926 12.7962 20.7969 12.5579C20.8013 12.3197 20.8013 11.9793 20.7969 11.8015C20.7926 11.6238 20.7832 11.3976 20.7761 11.299C20.769 11.2004 20.7552 11.0334 20.7454 10.928C20.7357 10.8226 20.7144 10.6324 20.6981 10.5052C20.6818 10.3781 20.6507 10.1701 20.6288 10.043C20.607 9.9159 20.5676 9.71043 20.5413 9.58642C20.5149 9.4624 20.4671 9.25947 20.435 9.13546C20.4028 9.01144 20.3659 8.87446 20.353 8.83106C20.34 8.78765 20.3133 8.70395 20.2937 8.64504C20.2741 8.58613 20.2261 8.4593 20.187 8.36319C20.148 8.26708 20.0722 8.10473 20.0187 8.00242C19.9651 7.90011 19.8857 7.7619 19.8422 7.69529C19.7987 7.62869 19.7304 7.52976 19.6905 7.47545C19.6505 7.42115 19.5887 7.34172 19.5532 7.29895C19.5177 7.25617 19.4347 7.16315 19.3687 7.09224C19.3026 7.02131 19.1868 6.90975 19.1112 6.8443C19.0357 6.77887 18.9171 6.68282 18.8477 6.63087C18.7783 6.57892 18.655 6.49362 18.5737 6.44131C18.4924 6.389 18.3503 6.30448 18.2581 6.2535C18.1659 6.20252 18.006 6.12169 17.9028 6.07388C17.7995 6.02608 17.6361 5.95635 17.5395 5.91893C17.443 5.88151 17.2929 5.82741 17.206 5.79869C17.1191 5.76999 16.9796 5.72677 16.8959 5.70264C16.8122 5.67851 16.6595 5.6384 16.5565 5.61351C16.4535 5.58861 16.2956 5.55254 16.2056 5.53333C16.1156 5.51412 15.9392 5.4808 15.8136 5.4593C15.6879 5.43779 15.5035 5.40791 15.4037 5.3929C15.304 5.37788 15.1196 5.35269 14.9941 5.33694C14.8686 5.32118 14.6974 5.30081 14.6138 5.29168C14.5301 5.28255 14.3747 5.26724 14.2685 5.25767C14.1623 5.24809 13.9517 5.23241 13.8004 5.22281C13.6399 5.21263 13.3013 5.20382 12.987 5.20166C12.6909 5.19962 12.4145 5.19973 12.3726 5.20189ZM13.9408 7.73674C14.0149 7.74654 14.1527 7.76976 14.2472 7.78836C14.3417 7.80695 14.4866 7.84179 14.5691 7.86579C14.6516 7.88978 14.7718 7.92842 14.8361 7.95164C14.9005 7.97488 15.0108 8.01864 15.0812 8.04893C15.1516 8.0792 15.27 8.13566 15.3444 8.17439C15.4187 8.21312 15.5559 8.29376 15.6493 8.35361C15.7428 8.41344 15.8768 8.50709 15.9472 8.56174C16.0176 8.61638 16.1431 8.72441 16.226 8.8018C16.3089 8.87919 16.4257 8.99861 16.4854 9.06717C16.5452 9.13573 16.6307 9.24002 16.6753 9.29893C16.72 9.35784 16.7902 9.45651 16.8312 9.51819C16.8723 9.57988 16.9445 9.70225 16.9917 9.79014C17.0389 9.87802 17.1015 10.0051 17.1309 10.0726C17.1603 10.14 17.2044 10.251 17.2288 10.3192C17.2533 10.3874 17.2869 10.4914 17.3035 10.5503C17.3201 10.6093 17.3441 10.7031 17.3569 10.7589C17.3698 10.8147 17.3911 10.932 17.4043 11.0195C17.4176 11.107 17.4332 11.268 17.439 11.3774C17.4452 11.494 17.4453 11.6565 17.4393 11.7704C17.4336 11.8772 17.4206 12.0231 17.4105 12.0946C17.4003 12.1661 17.3811 12.2778 17.3678 12.3429C17.3529 12.4164 17.3302 12.4861 17.308 12.5266C17.2884 12.5626 17.2526 12.6071 17.2284 12.6255C17.2043 12.644 17.159 12.6699 17.128 12.6832C17.0873 12.7006 17.0478 12.7074 16.9873 12.7074C16.9161 12.7074 16.8913 12.7018 16.8268 12.6712C16.7836 12.6507 16.7349 12.6169 16.7146 12.5932C16.6949 12.5703 16.6679 12.5298 16.6545 12.5034C16.6412 12.477 16.6275 12.4256 16.6241 12.3892C16.6202 12.3483 16.6251 12.2915 16.6367 12.24C16.6471 12.1943 16.6635 12.1087 16.673 12.0498C16.6826 11.9909 16.6963 11.8603 16.7034 11.7597C16.713 11.6244 16.7129 11.5275 16.703 11.3877C16.6957 11.2837 16.677 11.1276 16.6617 11.0408C16.6463 10.954 16.6153 10.8188 16.5928 10.7404C16.5704 10.662 16.533 10.5479 16.5097 10.4868C16.4865 10.4256 16.4235 10.2894 16.3698 10.1839C16.3161 10.0785 16.2247 9.92379 16.1667 9.84008C16.1086 9.75637 16.0253 9.64476 15.9814 9.59205C15.9376 9.53935 15.8331 9.4298 15.7493 9.3486C15.6654 9.26741 15.5415 9.1587 15.474 9.10702C15.4064 9.05534 15.2913 8.97543 15.2182 8.92944C15.1452 8.88345 15.0265 8.81599 14.9544 8.77952C14.8823 8.74305 14.7678 8.69078 14.6998 8.66336C14.6319 8.63593 14.511 8.59313 14.4312 8.56824C14.3514 8.54336 14.2245 8.50978 14.1492 8.49363C14.0739 8.47748 13.958 8.45637 13.8917 8.44671C13.8254 8.43704 13.6578 8.42635 13.5193 8.42293C13.3665 8.41916 13.2135 8.42178 13.1306 8.42958C13.0554 8.43666 12.9318 8.45379 12.8559 8.46764C12.7768 8.48208 12.6729 8.49281 12.6125 8.49277C12.5178 8.4927 12.5009 8.48934 12.4444 8.45927C12.4099 8.44089 12.3634 8.40442 12.3411 8.37823C12.3189 8.35205 12.2905 8.30491 12.2781 8.2735C12.265 8.24036 12.2556 8.18822 12.2556 8.14929C12.2556 8.1097 12.2652 8.05737 12.2791 8.02168C12.292 7.9884 12.3204 7.94112 12.3422 7.91661C12.364 7.89211 12.4081 7.85823 12.4404 7.84133C12.4761 7.82261 12.5532 7.79999 12.6377 7.78345C12.714 7.76852 12.8448 7.74829 12.9285 7.73851C13.0122 7.72871 13.1017 7.71867 13.1275 7.71619C13.1532 7.71369 13.3165 7.71329 13.4903 7.71528C13.6932 7.71762 13.8544 7.72529 13.9408 7.73674ZM9.81547 8.43646C9.86053 8.44555 9.93964 8.47303 9.99127 8.49754C10.0429 8.52205 10.1246 8.57451 10.1727 8.6141C10.2209 8.6537 10.3271 8.75423 10.4087 8.8375C10.4903 8.92077 10.6032 9.04217 10.6596 9.10727C10.7159 9.17238 10.8092 9.28653 10.8668 9.36094C10.9244 9.43535 11.0035 9.54188 11.0425 9.59769C11.0815 9.6535 11.1574 9.77018 11.2112 9.85699C11.265 9.9438 11.353 10.0985 11.4067 10.2009C11.4603 10.3032 11.5123 10.4148 11.5221 10.4489C11.5318 10.483 11.5431 10.5343 11.5471 10.5629C11.5511 10.5915 11.5486 10.6499 11.5415 10.6926C11.5344 10.7359 11.5111 10.805 11.4888 10.8491C11.4668 10.8925 11.422 10.9571 11.3892 10.9925C11.3565 11.028 11.2654 11.1061 11.187 11.166C11.1085 11.2259 11.0002 11.3161 10.9464 11.3664C10.8925 11.4167 10.8231 11.4949 10.792 11.5401C10.7609 11.5853 10.7235 11.6513 10.7088 11.6867C10.6854 11.743 10.6821 11.7707 10.6821 11.9089C10.6822 12.0647 10.6828 12.0684 10.7319 12.2076C10.7592 12.2851 10.8232 12.4297 10.8741 12.5289C10.925 12.6281 11.0113 12.7791 11.066 12.8644C11.1206 12.9497 11.2178 13.0867 11.2819 13.1688C11.3461 13.2509 11.4509 13.374 11.5149 13.4422C11.5788 13.5105 11.6834 13.6129 11.7473 13.6697C11.8112 13.7266 11.9135 13.8122 11.9747 13.86C12.0358 13.9077 12.1359 13.9812 12.1971 14.0233C12.2582 14.0653 12.3794 14.1413 12.4663 14.1921C12.5531 14.2428 12.7065 14.3241 12.807 14.3727C12.9075 14.4213 13.0455 14.484 13.1136 14.512C13.1817 14.54 13.2805 14.5714 13.3331 14.5816C13.399 14.5945 13.4511 14.5979 13.5005 14.5925C13.5399 14.5882 13.6032 14.5747 13.6411 14.5624C13.679 14.5501 13.7392 14.522 13.7749 14.5C13.8106 14.478 13.8711 14.4314 13.9092 14.3964C13.9474 14.3614 14.0152 14.281 14.0599 14.2178C14.1086 14.149 14.1807 14.0668 14.2392 14.0135C14.3148 13.9445 14.362 13.9125 14.4462 13.873C14.5062 13.8448 14.5842 13.815 14.6196 13.8068C14.6554 13.7984 14.7413 13.7922 14.8127 13.7928C14.9041 13.7936 14.9693 13.8009 15.0372 13.8181C15.0898 13.8315 15.1752 13.8596 15.2269 13.8806C15.2787 13.9017 15.3673 13.9456 15.4238 13.9784C15.4804 14.0111 15.5924 14.0837 15.6729 14.1397C15.7534 14.1956 16.0351 14.3968 16.299 14.5867C16.657 14.8442 16.8013 14.955 16.8674 15.0229C16.9184 15.0752 16.9739 15.1467 16.998 15.1912C17.0212 15.2337 17.049 15.2983 17.06 15.3348C17.072 15.375 17.0797 15.4395 17.0795 15.4987C17.0793 15.5524 17.0704 15.6291 17.0597 15.6692C17.0489 15.7092 17.0227 15.7826 17.0013 15.8322C16.9799 15.8818 16.9376 15.9655 16.9073 16.0182C16.877 16.0709 16.8278 16.1479 16.798 16.1892C16.7681 16.2305 16.7069 16.3059 16.6618 16.3567C16.6168 16.4076 16.5351 16.487 16.4804 16.5332C16.4257 16.5794 16.323 16.6546 16.2522 16.7002C16.1814 16.7458 16.0648 16.8114 15.9931 16.846C15.9214 16.8806 15.8289 16.9212 15.7876 16.9362C15.7462 16.9512 15.6706 16.9718 15.6195 16.9821C15.5638 16.9932 15.4727 17.0006 15.392 17.0005C15.3155 17.0003 15.2196 16.9926 15.1697 16.9825C15.1214 16.9728 15.0477 16.954 15.0058 16.9409C14.964 16.9278 14.8165 16.8691 14.6781 16.8106C14.5397 16.752 14.2843 16.6364 14.1105 16.5536C13.9367 16.4708 13.6919 16.3479 13.5663 16.2804C13.4408 16.2129 13.2565 16.1106 13.1567 16.0529C13.057 15.9952 12.8463 15.8655 12.6886 15.7645C12.5309 15.6635 12.3071 15.513 12.1912 15.4299C12.0754 15.3468 11.9095 15.2236 11.8226 15.156C11.7357 15.0885 11.6066 14.9853 11.5358 14.9267C11.465 14.8681 11.3228 14.7454 11.2199 14.6539C11.1169 14.5625 10.9404 14.3969 10.8278 14.286C10.7152 14.1751 10.562 14.0185 10.4875 13.938C10.413 13.8575 10.2928 13.7231 10.2204 13.6394C10.148 13.5557 10.032 13.4162 9.96255 13.3294C9.89313 13.2426 9.78906 13.1081 9.73129 13.0306C9.67353 12.9531 9.5629 12.7984 9.48545 12.6868C9.40801 12.5752 9.28142 12.3824 9.20416 12.2584C9.1269 12.1343 9.01541 11.9479 8.95642 11.8441C8.89742 11.7403 8.81247 11.5792 8.76764 11.4861C8.72282 11.393 8.65667 11.2496 8.62064 11.1675C8.58461 11.0854 8.48134 10.8381 8.39115 10.618C8.30096 10.3979 8.22271 10.2025 8.21724 10.1839C8.21179 10.1653 8.1991 10.0886 8.18905 10.0133C8.17421 9.90235 8.17318 9.8556 8.18359 9.76531C8.19064 9.70413 8.20373 9.62362 8.21269 9.58642C8.22164 9.54921 8.24186 9.48235 8.25761 9.43784C8.27336 9.39332 8.31156 9.30971 8.34248 9.25202C8.37341 9.19434 8.429 9.10841 8.46604 9.06107C8.50307 9.01373 8.57844 8.9339 8.63351 8.88368C8.6886 8.83345 8.78499 8.75944 8.84773 8.7192C8.91047 8.67896 9.01694 8.62072 9.08435 8.58978C9.15176 8.55884 9.25694 8.51738 9.31809 8.49765C9.37924 8.47792 9.47403 8.45265 9.52875 8.44146C9.58346 8.43029 9.65192 8.42088 9.68089 8.42055C9.70985 8.42022 9.77042 8.42738 9.81547 8.43646ZM13.8297 8.80727C13.894 8.81653 13.9994 8.83503 14.0637 8.8484C14.1281 8.86176 14.2499 8.89455 14.3344 8.92127C14.419 8.94799 14.5559 8.99974 14.6387 9.03626C14.7215 9.07279 14.8514 9.13909 14.9273 9.18359C15.0033 9.22808 15.114 9.29989 15.1735 9.34314C15.233 9.38639 15.3278 9.46239 15.3842 9.51203C15.4406 9.56166 15.5292 9.6469 15.581 9.70145C15.6329 9.75599 15.7115 9.84697 15.7558 9.90361C15.8001 9.96026 15.8744 10.0668 15.9209 10.1404C15.9673 10.2139 16.0364 10.3394 16.0743 10.4192C16.1122 10.499 16.1665 10.6324 16.1949 10.7156C16.2234 10.7988 16.2621 10.9415 16.281 11.0327C16.2999 11.124 16.3216 11.262 16.3292 11.3395C16.3376 11.425 16.3404 11.558 16.3362 11.6777C16.3324 11.7863 16.3212 11.9258 16.3111 11.9878C16.3005 12.0539 16.2808 12.1246 16.2635 12.1587C16.2472 12.1907 16.2124 12.2357 16.186 12.2586C16.1596 12.2816 16.1159 12.3098 16.0889 12.3213C16.0618 12.3328 16.0107 12.3455 15.9752 12.3496C15.9298 12.3547 15.8905 12.3512 15.8423 12.3377C15.8046 12.3271 15.7512 12.3035 15.7237 12.2853C15.6961 12.267 15.6587 12.2307 15.6405 12.2045C15.6224 12.1783 15.6016 12.1436 15.5943 12.1274C15.5871 12.1111 15.5778 12.0756 15.5737 12.0484C15.5695 12.0213 15.5744 11.9392 15.5844 11.866C15.5945 11.7928 15.6027 11.6701 15.6027 11.5932C15.6027 11.5163 15.5946 11.3935 15.5847 11.3204C15.5749 11.2472 15.5513 11.1298 15.5323 11.0595C15.5133 10.9892 15.4787 10.8852 15.4554 10.8284C15.4321 10.7716 15.3867 10.6769 15.3544 10.618C15.3221 10.5591 15.2691 10.4728 15.2368 10.4263C15.2044 10.3798 15.1477 10.3063 15.1109 10.2629C15.074 10.2195 14.9918 10.1357 14.9283 10.0767C14.8647 10.0177 14.7732 9.94115 14.7249 9.90655C14.6767 9.87194 14.5902 9.81654 14.5329 9.78342C14.4755 9.75031 14.3714 9.69863 14.3015 9.66858C14.2316 9.63854 14.1127 9.59689 14.0372 9.57603C13.9617 9.55518 13.8498 9.52965 13.7887 9.51933C13.7275 9.509 13.5959 9.49762 13.4961 9.49405C13.3601 9.48918 13.2753 9.4924 13.1573 9.50692C13.0659 9.51819 12.9778 9.5231 12.9472 9.51867C12.9181 9.51449 12.8705 9.50023 12.8412 9.48699C12.812 9.47377 12.7669 9.44253 12.741 9.41758C12.7151 9.39263 12.6812 9.34684 12.6656 9.31584C12.6429 9.27073 12.6372 9.24144 12.6371 9.16928C12.637 9.09392 12.6423 9.06859 12.669 9.01527C12.6866 8.98016 12.7226 8.93266 12.749 8.90971C12.7753 8.88675 12.8196 8.8583 12.8474 8.84646C12.8752 8.83463 12.9548 8.81758 13.0244 8.80857C13.094 8.79956 13.1719 8.79002 13.1977 8.78738C13.2234 8.78473 13.3498 8.78434 13.4786 8.78652C13.6073 8.78868 13.7653 8.79803 13.8297 8.80727ZM13.5522 9.86334C13.6147 9.86994 13.7053 9.88297 13.7536 9.89229C13.8019 9.90163 13.8963 9.92684 13.9634 9.94831C14.0305 9.96979 14.147 10.018 14.2222 10.0555C14.2974 10.0929 14.4084 10.1591 14.4688 10.2026C14.5292 10.246 14.6147 10.3154 14.6587 10.3567C14.7027 10.3981 14.7691 10.4675 14.8063 10.5109C14.8434 10.5543 14.8976 10.6253 14.9266 10.6687C14.9557 10.7121 15.0042 10.7951 15.0344 10.8531C15.0645 10.9111 15.107 11.0101 15.1286 11.073C15.1503 11.1359 15.1765 11.2271 15.1867 11.2756C15.197 11.3242 15.2111 11.4181 15.2181 11.4842C15.225 11.5503 15.2275 11.6349 15.2235 11.6721C15.2195 11.7093 15.2029 11.7662 15.1865 11.7985C15.1701 11.8309 15.1327 11.8776 15.1034 11.9024C15.0742 11.9273 15.0205 11.9584 14.9841 11.9716C14.9323 11.9905 14.9004 11.9946 14.8361 11.9907C14.7791 11.9872 14.7363 11.9769 14.6952 11.9567C14.6628 11.9408 14.6148 11.9054 14.5885 11.8779C14.5623 11.8505 14.5296 11.7992 14.5159 11.7638C14.5017 11.7273 14.4909 11.6731 14.4909 11.6387C14.4909 11.6053 14.4852 11.5389 14.4784 11.4912C14.4715 11.4435 14.4552 11.3708 14.4422 11.3297C14.4292 11.2886 14.3978 11.2149 14.3726 11.1659C14.3473 11.1169 14.3002 11.0425 14.2679 11.0005C14.2357 10.9586 14.1755 10.8939 14.1342 10.8567C14.0929 10.8195 14.0362 10.7738 14.0081 10.7552C13.98 10.7366 13.9136 10.7003 13.8606 10.6745C13.8077 10.6488 13.7151 10.6157 13.655 10.601C13.5949 10.5863 13.483 10.5695 13.4063 10.5637C13.2945 10.5552 13.2555 10.5475 13.2089 10.5245C13.177 10.5088 13.1314 10.4765 13.1076 10.4527C13.0837 10.4289 13.0529 10.3846 13.039 10.3543C13.0251 10.324 13.0111 10.2704 13.0077 10.2351C13.0038 10.1937 13.0083 10.1492 13.0204 10.1091C13.0307 10.0751 13.0547 10.0264 13.0738 10.001C13.0929 9.97558 13.1315 9.93958 13.1596 9.92097C13.1877 9.90237 13.2367 9.87946 13.2685 9.87005C13.3004 9.86062 13.3516 9.85257 13.3825 9.85215C13.4133 9.85171 13.4897 9.85674 13.5522 9.86334Z" fill="white"/>
    </svg>
    